<?xml version="1.0" standalone="no"?>
<!DOCTYPE svg PUBLIC "-//W3C//DTD SVG 1.1//EN" "http://www.w3.org/Graphics/SVG/1.1/DTD/svg11.dtd">
<svg xmlns="http://www.w3.org/2000/svg">
<defs >
<font id="BarlowSemiCondensed" horiz-adv-x="449" ><font-face
    font-family="Barlow Semi Condensed Medium"
    units-per-em="1000"
    panose-1="0 0 6 6 0 0 0 0 0 0"
    ascent="1000"
    descent="-200"
    alphabetic="0" />
<glyph unicode=" " glyph-name="space" horiz-adv-x="194" />
<glyph unicode="!" glyph-name="exclam" horiz-adv-x="286" d="M115 232T116 242L162 690Q164 700 173 700H247Q257 700 255 690L192 242Q191 232 181 232H125Q115 232 116 242ZM98 3T83 18T68 59Q68 90 88 110T138 131Q163 131 178 116T193 75Q193 45 173 24T123
3Q98 3 83 18Z" />
<glyph unicode="&quot;" glyph-name="quotedbl" horiz-adv-x="277" d="M71 482T72 492L87 686Q89 696 97 696H168Q178 696 176 686L143 492Q142 482 132 482H81Q71 482 72 492ZM216 482T217 492L232 686Q232 696 242 696H313Q323 696 321 686L287 492Q287 482
276 482H225Q216 482 217 492Z" />
<glyph unicode="#" glyph-name="numbersign" horiz-adv-x="615" d="M592 420T583 420H515Q510 420 510 416L474 278Q473 277 474 276T476 274H531Q540 274 540 264L532 201Q530 191 521 191H453Q448 191 448 187L405 29Q402 20 394 20L321 21Q317 21 315 24T313
32L355 187Q355 191 352 191H225Q220 191 220 187L177 29Q174 20 166 20L93 21Q89 21 87 24T85 32L127 187Q127 191 124 191H67Q57 191 59 201L67 264Q68 274 78 274H146Q151 274 152 278L188 416Q188 420 185 420H129Q119 420 121 430L130 494Q130 504 140 504H208Q213
504 214 508L256 666Q259 675 267 675L341 674Q345 674 347 671T348 663L307 508Q307 504 309 504H436Q441 504 442 508L484 666Q487 675 495 675L570 674Q574 674 576 671T577 663L536 508Q535 507 536 506T538 504H593Q598 504 600 501T602 494L594 430Q592 420
583 420ZM379 274T379 278L416 416Q416 420 413 420H287Q282 420 282 416L245 278Q244 277 245 276T247 274H374Q379 274 379 278Z" />
<glyph unicode="$" glyph-name="dollar" horiz-adv-x="480" d="M435 104T387 55T263 -5Q259 -6 259 -10L251 -78Q251 -82 248 -85T240 -88H183Q173 -88 175 -78L184 -9Q185 -5 181 -4Q115 6 78 47T41 152Q41 161 43 179L47 206Q47 210 50 213T58 216H127Q132 216
134 213T136 206L133 184Q132 178 132 168Q132 126 159 101T236 75Q290 75 322 107T354 190Q354 226 328 251T237 316Q187 346 158 368T109 423T89 501Q89 585 137 639T265 706Q269 706 270 710L278 784Q278 788 281 791T289 794H346Q356 794 354 784L343 709Q343
706 346 704Q410 693 446 652T482 546Q482 536 480 516L478 493Q476 483 467 483H396Q387 483 387 493L390 514Q391 520 391 531Q391 573 365 599T291 625Q245 625 216 600T180 529Q179 524 179 515Q179 479 204 455T295 392Q351 356 379 334T427 280T446 205Q446
198 444 180Q435 104 387 55Z" />
<glyph unicode="%" glyph-name="percent" horiz-adv-x="783" d="M190 413T154 450T118 543Q118 587 141 625T201 686T281 709Q335 709 370 672T406 581Q406 536 384 498T324 436T245 413Q190 413 154 450ZM160 0T158 3T160 12L604 693Q608 700 617 700H664Q669
700 671 697T669 688L225 7Q221 0 212 0H165Q160 0 158 3ZM291 470T320 501T349 575Q349 608 328 630T274 653Q235 653 205 622T175 549Q175 514 196 492T252 470Q291 470 320 501ZM498 -9T463 28T427 120Q427 164 449 202T509 264T589 287Q643 287 679 250T715
158Q715 114 692 76T632 14T553 -9Q498 -9 463 28ZM599 47T628 78T658 152Q658 186 637 208T582 230Q543 230 513 199T483 126Q483 92 504 70T560 47Q599 47 628 78Z" />
<glyph unicode="&amp;" glyph-name="ampersand" horiz-adv-x="601" d="M536 7Q536 4 534 2T527 0H444Q439 0 434 6Q424 19 412 38Q397 59 397 59Q395 61 391 59Q304 -8 205 -8Q129 -8 84 28T38 133Q38 211 79 265T193 367Q196 368 194 372Q157 432 144 464T130
524Q130 577 154 619T221 684T317 708Q385 708 427 670T469 568Q469 553 468 545Q460 484 422 439T321 351Q317 350 319 346L352 296Q392 235 389 239L415 199Q418 195 421 199Q452 236 483 279Q486 283 490 283T497 282L548 250Q556 244 550 236Q507 176 464 128Q462
124 463 122Q511 50 534 12L536 7ZM272 620T248 595T224 527Q224 510 233 488T269 422Q272 419 275 421Q324 455 349 486T375 556Q375 585 357 602T309 620Q272 620 248 595ZM281 74T347 126Q351 130 348 132Q331 158 330 160L303 203L277 242Q260 270 243 295Q242
298 238 296Q187 260 161 227T134 149Q134 115 156 95T219 74Q281 74 347 126Z" />
<glyph unicode="&apos;" glyph-name="quotesingle" horiz-adv-x="137" d="M72 486T73 496L87 688Q89 698 97 698H173Q181 698 181 688L147 496Q146 486 136 486H81Q72 486 73 496Z" />
<glyph unicode="(" glyph-name="parenleft" horiz-adv-x="264" d="M73 -100T70 -94Q43 -38 27 38T11 203Q11 259 19 328Q35 457 77 568T176 756Q182 762 189 762H259Q264 762 266 759T265 750Q216 669 178 560T124 329Q116 269 116 199Q116 115 128 42T162 -88L163
-92Q163 -100 154 -100H81Q73 -100 70 -94Z" />
<glyph unicode=")" glyph-name="parenright" horiz-adv-x="264" d="M233 762T236 756Q264 699 280 623T296 457Q296 403 288 334Q273 207 231 95T131 -94Q126 -100 119 -100H47Q42 -100 41 -97T42 -88Q91 -8 129 101T183 333Q191 393 191 463Q191 547 178 620T144
750L143 753Q143 762 153 762H225Q233 762 236 756Z" />
<glyph unicode="*" glyph-name="asterisk" horiz-adv-x="368" d="M186 394T186 404L200 513Q200 515 199 516T195 516L95 460Q93 459 90 459Q84 459 82 464L68 497Q67 498 67 501Q67 508 73 511L175 567Q177 568 177 570T176 573L88 629Q84 631 84 635T86 643L108
677Q115 686 122 681L209 624Q210 623 211 624T214 627L227 737Q229 747 238 747H275Q284 747 284 737L270 627Q270 622 274 624L374 681L379 683Q383 683 387 677L401 643Q402 642 402 639Q402 632 395 629L293 573Q292 572 292 570T293 567L381 511Q384 509 385
505T383 497L360 463Q354 453 346 459L261 516Q259 517 258 516T256 513L243 404Q241 394 232 394H195Q186 394 186 404Z" />
<glyph unicode="+" glyph-name="plus" horiz-adv-x="454" d="M446 351T444 341L437 283Q437 279 434 276T426 273H283Q280 273 278 269L260 122Q260 118 257 115T249 112H193Q183 112 185 122L203 269Q203 273 199 273H55Q46 273 46 283L54 341Q54 345 57 348T64
351H209Q213 351 213 355L232 505Q232 509 235 512T243 515H299Q309 515 307 505L289 355Q289 351 292 351H436Q446 351 444 341Z" />
<glyph unicode="," glyph-name="comma" horiz-adv-x="220" d="M20 -86T18 -83T17 -75L77 147Q80 156 88 156H153Q164 156 159 145L81 -77Q77 -86 69 -86H24Q20 -86 18 -83Z" />
<glyph unicode="-" glyph-name="hyphen" horiz-adv-x="349" d="M45 264T45 274L53 337Q55 347 64 347H331Q341 347 339 337L331 274Q331 270 328 267T321 264H54Q45 264 45 274Z" />
<glyph unicode="." glyph-name="period" horiz-adv-x="231" d="M70 0T55 15T40 54Q40 86 60 107T111 128Q135 128 150 113T165 72Q165 41 145 21T95 0Q70 0 55 15Z" />
<glyph unicode="/" glyph-name="slash" horiz-adv-x="383" d="M2 0T7 11L298 692Q303 700 311 700H384Q395 700 390 689L99 8Q94 0 86 0H14Q2 0 7 11Z" />
<glyph unicode="0" glyph-name="zero" horiz-adv-x="492" d="M144 -10T99 34T53 156Q53 167 55 189L95 511Q105 601 164 655T313 709Q393 709 439 664T486 541Q486 531 484 511L444 189Q433 98 373 44T225 -10Q144 -10 99 34ZM281 73T312 103T350 184L391 515Q392
521 392 533Q392 576 368 601T303 626Q257 626 226 596T188 515L148 184Q147 177 147 164Q147 122 170 98T235 73Q281 73 312 103Z" />
<glyph unicode="1" glyph-name="one" horiz-adv-x="299" d="M210 700T217 700H294Q298 700 300 697T302 690L219 10Q218 6 215 3T208 0H134Q125 0 125 10L197 596Q198 598 197 599T193 600L95 569L92 568Q86 568 84 577L88 634Q88 641 96 646L204 697Q210 700 217 700Z" />
<glyph unicode="2" glyph-name="two" horiz-adv-x="465" d="M148 83T153 83H410Q420 83 418 73L411 10Q410 6 407 3T400 0H34Q25 0 25 10L33 74Q35 82 39 86Q190 259 266 353Q363 472 363 542Q363 580 341 602T282 625Q241 625 213 598T181 525L177 490Q176 486
173 483T166 480H91Q82 480 82 490L88 533Q100 612 157 660T295 708Q370 708 414 665T458 552Q458 500 433 444T354 322Q302 258 182 124L151 88Q148 83 153 83Z" />
<glyph unicode="3" glyph-name="three" horiz-adv-x="457" d="M418 303T418 266Q418 243 415 217Q406 154 383 106Q327 -8 203 -8Q132 -8 90 30T42 134Q40 152 40 161Q40 177 41 188T43 207Q45 217 54 217H128Q137 217 136 207Q134 185 134 174L135 153Q138 116
158 96T213 75Q278 75 306 144Q320 182 324 224Q327 248 327 268Q327 296 323 313Q309 376 249 376Q234 376 217 367Q213 365 211 365Q207 365 203 369L171 411Q168 414 168 417Q168 421 172 425L343 612Q344 613 344 615T342 617H111Q106 617 104 620T102 627L110
690Q112 700 121 700H461Q466 700 468 697T470 690L462 624Q461 617 456 612L298 435Q297 434 297 432T299 430Q342 426 370 402T410 335Q418 303 418 266Z" />
<glyph unicode="4" glyph-name="four" horiz-adv-x="490" d="M462 274T464 271T466 264L458 197Q456 187 447 187H411Q407 187 407 183L385 10Q385 6 382 3T374 0H301Q296 0 294 3T292 10L313 183Q314 184 313 185T310 187H43Q39 187 37 190T35 197L42 252Q42
259 45 264L263 692Q267 700 275 700H355Q360 700 361 697T360 688L154 279Q152 277 153 276T156 274H321Q325 274 325 278L343 420Q343 424 346 427T353 430H427Q436 430 436 420L418 278Q418 274 422 274H458Q462 274 464 271Z" />
<glyph unicode="5" glyph-name="five" horiz-adv-x="457" d="M431 306T431 273Q431 242 427 217Q422 169 408 129Q383 63 333 28T213 -8Q144 -8 103 29T54 133Q52 159 52 173Q52 183 62 183H137Q146 183 146 173Q146 158 148 152Q151 115 170 96T224 76Q257 76
282 96T319 153Q329 177 333 216Q336 239 336 262Q336 278 335 286Q331 320 311 337T258 355Q226 355 201 340T163 295Q162 291 159 289T152 287H76Q66 287 68 297L116 690Q116 694 119 697T127 700H457Q462 700 464 697T466 690L458 627Q456 617 447 617H204Q201
617 199 613L172 400Q172 395 177 398Q198 418 227 428T288 439Q345 439 381 411T426 328Q431 306 431 273Z" />
<glyph unicode="6" glyph-name="six" horiz-adv-x="457" d="M431 297T431 265Q431 243 428 217Q423 171 407 127Q383 62 334 27T215 -8Q152 -8 113 23T62 114Q54 141 54 172Q54 193 57 214L95 531Q105 611 161 659T300 708Q371 708 413 668T456 559Q456 542 455
534L452 513Q450 503 441 503H367Q357 503 359 513L361 527Q362 532 362 543Q362 579 342 601T289 624Q250 624 222 597T188 524L173 398Q173 392 177 396Q221 441 284 441Q343 441 378 410T425 321Q431 297 431 265ZM329 176T334 219Q337 242 337 261Q337 280
334 295Q329 326 310 343T260 361Q228 361 205 344T169 294Q156 265 151 218Q148 193 148 171Q148 127 167 102T225 76Q258 76 282 95T319 152Q329 176 334 219Z" />
<glyph unicode="7" glyph-name="seven" horiz-adv-x="418" d="M88 0T93 11L358 612Q359 613 358 615T355 617H161Q157 617 157 613L151 570Q151 566 148 563T141 560H83Q73 560 75 570L90 690Q90 694 93 697T100 700H458Q463 700 465 697T467 690L459 623Q457
615 455 611L190 8Q189 4 185 2T178 0H99Q88 0 93 11Z" />
<glyph unicode="8" glyph-name="eight" horiz-adv-x="464" d="M424 271T424 237Q424 219 421 198Q414 136 387 92Q360 45 314 19T211 -8Q154 -8 115 19T60 95Q50 124 50 163Q50 187 52 199Q58 253 82 298Q108 345 154 367Q158 370 155 373Q124 394 109 428Q95
457 95 499Q95 567 131 621Q158 663 202 687T300 711Q354 711 392 688T446 621Q459 589 459 553Q459 483 421 428Q399 395 362 373Q357 370 361 368Q400 346 415 298Q424 271 424 237ZM191 546T188 518Q187 511 187 497Q187 473 194 456Q202 433 219 420T262 407Q288
407 309 420T344 458Q365 491 365 538Q365 556 360 574Q353 599 335 613T289 628Q262 628 240 613T205 573Q191 546 188 518ZM324 160T330 204Q332 224 332 233Q332 254 327 272Q321 302 302 317T253 333Q223 333 201 318T165 274Q152 250 145 204Q143 184 143
176Q143 149 150 131Q157 104 175 90T222 75Q249 75 270 89T306 130Q324 160 330 204Z" />
<glyph unicode="9" glyph-name="nine" d="M442 561T442 524Q442 512 440 486L401 169Q391 88 335 40T197 -8Q126 -8 84 32T41 139Q41 148 43 166L45 187Q47 197 56 197H130Q140 197 138 187L137 173Q136 167 136 157Q136 121 155 99T207 76Q247 76 275 103T309
176L324 303Q325 305 324 306T320 305Q277 259 213 259Q154 259 118 291T72 379Q66 403 66 435Q66 458 69 483Q75 537 91 573Q114 638 163 673T281 708Q344 708 383 677T434 586Q442 561 442 524ZM268 339T291 356T327 406Q341 438 346 482Q349 508 349 529Q349
573 330 598T272 624Q239 624 215 605T177 548Q166 512 162 481Q159 460 159 442Q159 422 162 405Q175 339 237 339Q268 339 291 356Z" />
<glyph unicode=":" glyph-name="colon" horiz-adv-x="282" d="M138 340T123 355T108 394Q108 426 128 447T179 468Q203 468 218 453T233 412Q233 381 213 361T163 340Q138 340 123 355ZM97 7T82 22T67 61Q67 93 87 114T138 135Q162 135 177 120T192 79Q192 48
172 28T122 7Q97 7 82 22Z" />
<glyph unicode=";" glyph-name="semicolon" horiz-adv-x="252" d="M123 335T107 352T90 396Q90 426 114 449T166 473Q190 473 207 456T225 413Q225 381 203 358T149 335Q123 335 107 352ZM40 -83T38 -80T37 -72L86 144Q87 153 96 153H162Q172 153 170 142L101
-74Q100 -83 90 -83H45Q40 -83 38 -80Z" />
<glyph unicode="&lt;" glyph-name="less" horiz-adv-x="454" d="M409 53T406 51T397 51L47 231Q41 235 41 242L50 310Q50 316 58 321L452 501Q454 502 457 502Q465 502 463 494L454 422Q454 415 445 411L143 279Q137 276 142 273L412 141Q419 138 419 130L410
58Q409 53 406 51Z" />
<glyph unicode="=" glyph-name="equal" horiz-adv-x="454" d="M59 378T59 388L66 446Q68 456 77 456H449Q459 456 457 446L450 388Q448 378 439 378H68Q59 378 59 388ZM290 434T290 444L297 502Q299 512 308 512H680Q690 512 688 502L681 444Q679 434 670 434H299Q290
434 290 444Z" />
<glyph unicode="&gt;" glyph-name="greater" horiz-adv-x="454" d="M28 50T25 50Q17 50 19 58L28 130Q28 137 37 141L339 273Q345 276 340 279L70 411Q63 414 63 422L72 494Q73 499 76 501T85 501L435 321Q441 317 441 310L432 242Q432 236 424 231L30 51Q28 50 25 50Z" />
<glyph unicode="?" glyph-name="question" horiz-adv-x="425" d="M156 208T158 218L164 268Q169 313 192 342T259 404Q300 437 320 461T346 524Q347 530 347 541Q347 579 327 600T270 622Q229 622 201 594T167 522L164 496Q162 486 153 486L80 490Q75 490 73 493T71
500L74 522Q84 606 142 657T283 709Q357 709 399 668T441 557Q441 547 439 527Q434 483 417 451T380 400T327 354Q293 328 276 309T256 263L251 218Q249 208 240 208H166Q156 208 158 218ZM152 1T137 16T122 57Q122 88 142 108T192 129Q217 129 232 114T247 73Q247
42 227 22T177 1Q152 1 137 16Z" />
<glyph unicode="@" glyph-name="at" horiz-adv-x="768" d="M563 631T622 601T714 514T746 383Q746 336 733 287Q709 192 657 139T533 86Q501 86 477 98T440 132Q437 135 435 132Q416 109 389 98T333 86Q289 86 263 110T237 176Q237 199 253 271Q266 318 276 348Q294
397 329 425T410 453Q456 453 477 422Q478 420 479 421T482 424L485 438Q488 447 496 447H542Q547 447 549 444T550 436L501 239Q497 223 497 207Q497 180 510 165T549 149Q587 149 617 185T664 286Q675 329 675 372Q675 464 620 516T469 568Q394 568 323 531T199
424T127 262Q118 220 118 183Q118 87 172 32T317 -23Q362 -23 404 -11T473 19Q476 22 480 22Q483 22 486 17L504 -16Q506 -20 506 -22Q506 -27 501 -30Q464 -56 410 -71T299 -87Q224 -87 169 -56T83 34T52 170Q52 214 63 267Q87 376 151 459T303 586T483 631Q563
631 622 601ZM375 144T394 160T423 201Q425 206 430 221T440 256L442 263L443 267V269L457 337Q458 341 458 349Q458 370 446 382T412 394Q388 394 368 378T337 337Q325 301 317 268Q305 219 304 201Q301 175 313 160T351 144Q375 144 394 160Z" />
<glyph unicode="A" glyph-name="A" horiz-adv-x="517" d="M382 0T380 9L366 125Q365 128 361 128H147Q143 128 141 125L99 9Q96 0 87 0H12Q7 0 5 3T4 11L267 691Q271 700 279 700H370Q378 700 380 691L477 11V9Q477 5 474 3T467 0H390Q382 0 380 9ZM171 207T172
206T175 204H351Q353 204 354 205T355 208L310 570Q309 572 308 572T306 570L172 208Q171 207 172 206Z" />
<glyph unicode="B" glyph-name="B" horiz-adv-x="524" d="M472 100T412 50T262 0H60Q50 0 52 10L135 690Q137 700 146 700H337Q423 700 470 661T517 546Q517 536 515 514Q502 407 411 365Q406 362 410 360Q484 317 484 224Q484 214 482 192Q472 100 412 50ZM219
617T219 613L193 402Q193 398 196 398H301Q357 398 390 432T423 524Q423 568 399 592T328 617H223Q219 617 219 613ZM324 84T358 122T392 226Q392 271 367 296T297 322H187Q183 322 183 318L154 88Q154 84 158 84H268Q324 84 358 122Z" />
<glyph unicode="C" glyph-name="C" horiz-adv-x="514" d="M155 -8T106 38T56 165Q56 175 58 197L96 504Q107 597 170 652T327 708Q412 708 461 662T510 538Q510 529 508 507L507 499Q507 495 504 492T496 488L422 484Q412 484 414 494L416 509Q417 515 417 526Q417
571 390 598T317 625Q266 625 231 593T190 509L151 191Q150 185 150 172Q150 128 177 102T250 75Q300 75 335 107T377 191L378 205Q380 215 389 215L462 211Q467 211 469 208T471 201L470 194Q459 103 396 48T240 -8Q155 -8 106 38Z" />
<glyph unicode="D" glyph-name="D" horiz-adv-x="527" d="M50 0T52 10L135 690Q137 700 146 700H343Q425 700 472 656T519 537Q519 528 517 506L479 194Q468 106 408 53T257 0H60Q50 0 52 10ZM154 83T158 83L269 84Q316 84 348 116T387 204L423 496Q424 504 424
519Q424 564 400 590T334 617H223Q219 617 219 613L154 87Q154 83 158 83Z" />
<glyph unicode="E" glyph-name="E" horiz-adv-x="500" d="M515 623T512 620T504 617H223Q219 617 219 613L192 397Q192 393 196 393H381Q391 393 389 383L382 320Q380 310 371 310H186Q184 310 183 309T181 306L154 87Q154 83 158 83H439Q449 83 447 73L440 10Q438
0 429 0H60Q50 0 52 10L135 690Q137 700 146 700H515Q525 700 523 690L515 627Q515 623 512 620Z" />
<glyph unicode="F" glyph-name="F" horiz-adv-x="473" d="M514 623T511 620T504 617H223Q219 617 219 613L192 397Q192 393 196 393H380Q390 393 388 383L381 320Q379 310 370 310H186Q184 310 183 309T181 306L145 10Q143 0 134 0H60Q50 0 52 10L135 690Q137
700 146 700H514Q524 700 522 690L514 627Q514 623 511 620Z" />
<glyph unicode="G" glyph-name="G" horiz-adv-x="519" d="M154 -8T106 38T57 163Q57 172 59 194L97 506Q108 598 171 653T327 708Q411 708 460 662T510 540Q510 532 508 512L505 485Q503 475 494 475H420Q410 475 412 485L415 512Q416 518 416 529Q416 572 390
598T316 625Q266 625 231 593T189 508L151 192Q150 186 150 173Q150 129 177 102T251 75Q302 75 335 105T375 186L386 279Q387 280 386 281T383 283H281Q271 283 273 293L280 355Q282 365 291 365H480Q485 365 487 362T489 355L470 199Q458 102 396 47T239 -8Q154
-8 106 38Z" />
<glyph unicode="H" glyph-name="H" horiz-adv-x="543" d="M448 694T451 697T458 700H532Q541 700 541 690L457 10Q455 0 446 0H372Q368 0 366 3T364 10L400 306Q401 307 400 308T397 310H186Q184 310 183 309T181 306L145 10Q143 0 134 0H60Q50 0 52 10L135 690Q137
700 146 700H220Q230 700 228 690L192 397Q192 393 196 393H407Q410 393 412 397L448 690Q448 694 451 697Z" />
<glyph unicode="I" glyph-name="I" horiz-adv-x="233" d="M50 0T52 10L135 690Q137 700 146 700H220Q230 700 228 690L145 10Q143 0 134 0H60Q50 0 52 10Z" />
<glyph unicode="J" glyph-name="J" horiz-adv-x="492" d="M118 -8T71 37T23 159Q23 168 25 188L34 263Q36 273 45 273H119Q129 273 127 263L118 187Q117 181 117 169Q117 126 142 101T211 75Q259 75 292 106T332 187L394 690Q396 700 405 700H479Q489 700 487
690L426 188Q415 100 353 46T201 -8Q118 -8 71 37Z" />
<glyph unicode="K" glyph-name="K" horiz-adv-x="525" d="M50 0T52 10L135 690Q137 700 146 700H220Q230 700 228 690L190 380Q190 378 192 378T195 379L456 694Q460 700 468 700H549Q555 700 556 696T554 688L331 409Q328 406 330 403L486 12Q487 11 487 8Q487
0 477 0H395Q385 0 384 7L255 327Q255 329 254 329T251 328L175 240L172 235L145 10Q143 0 134 0H60Q50 0 52 10Z" />
<glyph unicode="L" glyph-name="L" horiz-adv-x="473" d="M50 0T52 10L135 690Q137 700 146 700H220Q230 700 228 690L154 87Q154 83 158 83H433Q442 83 442 73L434 10Q432 0 423 0H60Q50 0 52 10Z" />
<glyph unicode="M" glyph-name="M" horiz-adv-x="604" d="M511 700T519 700H592Q601 700 601 690L517 10Q517 6 514 3T506 0H433Q428 0 426 3T424 10L486 514Q487 517 485 517T481 515L342 318Q335 311 329 311H314Q307 311 303 318L210 513Q209 516 208 516T205
512L144 10Q142 0 133 0H59Q49 0 51 10L134 690Q136 700 145 700H219Q225 700 230 693L338 467Q338 466 340 466T343 467L506 693Q511 700 519 700Z" />
<glyph unicode="N" glyph-name="N" horiz-adv-x="569" d="M472 694T475 697T483 700H556Q561 700 563 697T565 690L481 10Q481 6 478 3T470 0H393Q383 0 382 7L208 492Q206 494 205 494T203 491L145 10Q143 0 134 0H60Q50 0 52 10L135 690Q137 700 146 700H224Q233
700 234 693L408 208Q409 206 410 206T413 209L472 690Q472 694 475 697Z" />
<glyph unicode="O" glyph-name="O" horiz-adv-x="525" d="M156 -9T107 39T57 169Q57 179 59 203L95 497Q102 559 134 607T216 681T329 708Q415 708 465 660T515 531Q515 521 513 497L477 203Q465 108 400 50T241 -9Q156 -9 107 39ZM304 75T340 109T383 199L420
499Q421 506 421 519Q421 567 394 596T319 625Q267 625 232 590T188 499L152 199Q151 192 151 177Q151 130 178 103T252 75Q304 75 340 109Z" />
<glyph unicode="P" glyph-name="P" horiz-adv-x="506" d="M434 701T477 656T520 533Q520 523 518 499Q508 410 451 356T311 301H181Q180 301 179 300T177 297L142 10Q140 0 131 0H57Q47 0 49 10L132 691Q134 701 143 701H361Q434 701 477 656ZM359 378T393 417T427
519Q427 565 403 591T337 618H220Q216 618 216 614L188 382Q187 381 188 380T191 378H307Q359 378 393 417Z" />
<glyph unicode="Q" glyph-name="Q" horiz-adv-x="501" d="M400 708T448 660T496 530Q496 519 494 497L457 200Q447 121 400 67T281 -3Q278 -4 276 -8L265 -99Q265 -103 262 -106T254 -109H181Q176 -109 174 -106T172 -99L183 -8Q185 -5 180 -3Q120 11 86 56T52
168Q52 178 54 200L90 497Q98 559 129 607T210 681T318 708Q400 708 448 660ZM401 504Q402 511 402 525Q402 571 377 598T308 625Q259 625 225 592T184 504L146 196Q145 189 145 176Q145 130 170 103T240 75Q289 75 323 108T364 196L401 504Z" />
<glyph unicode="R" glyph-name="R" horiz-adv-x="517" d="M370 0T369 8L293 306Q292 309 289 309H185Q181 309 181 305L145 10Q143 0 134 0H60Q50 0 52 10L135 690Q137 700 146 700H363Q436 700 478 655T521 535Q521 525 519 501Q511 434 475 386T385 320Q381
319 382 315L463 12L464 9Q464 0 454 0H378Q370 0 369 8ZM219 617T219 613L191 389Q191 385 195 385H312Q362 385 394 423T427 522Q427 566 404 591T341 617H223Q219 617 219 613Z" />
<glyph unicode="S" glyph-name="S" horiz-adv-x="492" d="M142 -8T92 36T41 154Q41 161 43 179L47 206Q47 210 50 213T58 216H129Q134 216 136 213T138 206L135 184Q134 179 134 168Q134 126 162 101T242 75Q297 75 329 107T362 190Q362 226 336 251T242 316Q191
345 160 368T109 424T89 502Q89 510 91 528Q101 612 160 660T308 708Q393 708 442 664T492 544Q492 536 490 516L487 493Q487 489 484 486T476 483H404Q399 483 397 486T395 493L398 514Q399 520 399 531Q399 573 372 599T296 625Q249 625 219 600T183 529Q182
524 182 514Q182 478 207 454T300 392Q358 356 387 334T436 280T456 205Q456 198 454 180Q444 94 383 43T228 -8Q142 -8 92 36Z" />
<glyph unicode="T" glyph-name="T" horiz-adv-x="492" d="M520 700T522 697T524 690L516 626Q516 622 513 619T505 616H349Q345 616 345 612L271 10Q269 0 260 0H186Q176 0 178 10L252 612Q252 616 248 616H99Q90 616 90 626L98 690Q100 700 109 700H516Q520 700
522 697Z" />
<glyph unicode="U" glyph-name="U" horiz-adv-x="542" d="M166 -8T117 40T68 172Q68 182 70 206L129 690Q131 700 140 700H214Q224 700 222 690L162 200Q161 193 161 180Q161 132 188 104T260 75Q312 75 347 109T390 200L450 690Q451 694 454 697T461 700H535Q544
700 544 690L484 206Q472 109 408 51T250 -8Q166 -8 117 40Z" />
<glyph unicode="V" glyph-name="V" horiz-adv-x="513" d="M188 0T186 9L96 689V691Q96 695 99 697T106 700H186Q195 700 195 691L256 155Q256 152 257 152T260 155L452 691Q454 700 463 700H540Q552 700 547 689L288 9Q287 5 284 3T276 0H196Q188 0 186 9Z" />
<glyph unicode="W" glyph-name="W" horiz-adv-x="739" d="M168 0T165 2T162 9L91 689V691Q91 695 93 697T100 700H178Q187 700 188 691L232 207Q233 202 236 207L389 691Q392 700 401 700H472Q481 700 482 691L523 207Q524 202 527 207L685 691Q688 700 697 700H772Q777
700 779 697T779 689L547 9Q546 0 535 0H463Q453 0 453 9L414 504Q414 507 413 507T410 504L253 9Q252 0 242 0H172Q168 0 165 2Z" />
<glyph unicode="X" glyph-name="X" horiz-adv-x="510" d="M16 0T15 3T16 12L225 347Q226 349 226 353L99 688L98 692Q98 700 107 700H186Q194 700 197 693L288 440Q288 438 290 438T294 440L445 693Q449 700 457 700H536Q541 700 542 697T541 688L332 352Q331
349 332 346L458 12L459 8Q459 0 450 0H372Q363 0 362 7L272 260Q271 262 269 262T266 260L112 7Q109 0 100 0H21Q16 0 15 3Z" />
<glyph unicode="Y" glyph-name="Y" horiz-adv-x="498" d="M183 1T185 11L220 295Q220 299 219 300L98 688L97 691Q97 700 107 700H186Q193 700 196 692L277 408Q278 406 280 406T283 408L433 692Q437 700 445 700H524Q529 700 531 697T531 688L313 300Q312 299
312 295L277 11Q275 1 266 1H193Q183 1 185 11Z" />
<glyph unicode="Z" glyph-name="Z" horiz-adv-x="462" d="M14 0T16 10L24 78Q26 88 29 91L375 612Q376 614 376 615T374 617H100Q90 617 92 627L99 690Q101 700 110 700H480Q490 700 488 690L480 622Q478 613 475 609L128 88Q127 86 127 85T130 83H404Q414 83
412 73L405 10Q403 0 394 0H24Q14 0 16 10Z" />
<glyph unicode="[" glyph-name="bracketleft" horiz-adv-x="345" d="M-1 -130T-3 -127T-5 -120L105 774Q105 778 108 781T116 784H302Q312 784 310 774L303 710Q302 706 299 703T292 700H193Q190 700 188 696L98 -43Q97 -44 98 -45T101 -47H201Q211 -47 209 -57L202
-120Q201 -124 198 -127T191 -130H3Q-1 -130 -3 -127Z" />
<glyph unicode="\" glyph-name="backslash" horiz-adv-x="383" d="M339 9Q339 0 330 0H257Q249 0 246 8L122 689V691Q122 700 132 700H204Q208 700 211 698T215 692L339 11V9Z" />
<glyph unicode="]" glyph-name="bracketright" horiz-adv-x="345" d="M279 -130T270 -130H83Q73 -130 75 -120L82 -57Q84 -47 93 -47H193Q197 -47 197 -43L288 696Q288 700 285 700H186Q177 700 177 710L185 774Q187 784 196 784H382Q387 784 389 781T391 774L281
-120Q279 -130 270 -130Z" />
<glyph unicode="^" glyph-name="asciicircum" horiz-adv-x="419" d="M49 304T54 315L231 692Q235 700 244 700H306Q316 700 317 692L403 315V313Q403 304 394 304H334Q326 304 323 312L266 594Q265 596 263 596T260 594L133 312Q130 304 121 304H61Q49 304 54 315Z" />
<glyph unicode="_" glyph-name="underscore" horiz-adv-x="432" d="M7 0T5 3T3 10L10 65Q12 75 21 75H390Q395 75 397 72T399 65L392 10Q390 0 381 0H12Q7 0 5 3Z" />
<glyph unicode="`" glyph-name="grave" horiz-adv-x="196" d="M221 581Q221 573 211 573H162Q155 573 151 579L95 688L94 692Q94 700 103 700H164Q171 700 175 693L220 585L221 581Z" />
<glyph unicode="a" glyph-name="a" horiz-adv-x="476" d="M368 509T377 509H450Q455 509 457 506T459 499L399 10Q397 0 388 0H314Q304 0 306 10L311 55Q312 58 310 58T307 56Q285 25 254 9T186 -8Q122 -8 86 33T51 143Q49 173 59 254Q69 334 80 371Q97 438 142
477T253 517Q290 517 316 502T356 455Q357 452 358 452T361 456L366 499Q368 509 377 509ZM328 190T336 254Q344 319 343 352Q344 388 324 411T269 434Q233 434 206 411T170 351Q162 316 155 255Q147 196 146 158Q146 121 167 98T225 75Q260 75 286 98T320 158Q328
190 336 254Z" />
<glyph unicode="b" glyph-name="b" horiz-adv-x="477" d="M447 294T441 253Q435 195 416 139Q390 64 349 28T246 -8Q173 -8 144 45Q143 47 142 46T139 43L135 10Q133 0 124 0H50Q46 0 44 3T42 10L125 690Q126 694 129 697T136 700H210Q219 700 219 690L191 467Q191
464 192 464T196 466Q233 517 307 517Q447 517 447 339Q447 294 441 253ZM337 179T348 255Q352 286 352 318Q352 352 347 371Q331 434 275 434Q221 434 193 369Q174 328 166 255Q161 212 161 183Q161 162 164 142Q175 75 232 75Q264 75 286 92T322 144Q337 179
348 255Z" />
<glyph unicode="c" glyph-name="c" horiz-adv-x="456" d="M141 -8T98 32T52 143Q52 192 60 256Q68 321 80 367Q99 435 152 476T280 517Q352 517 396 478T443 378Q444 371 444 354Q443 345 433 343L360 337H358Q351 337 351 344L350 348V360Q349 391 327 412T269
434Q232 434 205 411T169 350Q159 307 153 255Q146 199 146 158Q146 120 167 98T225 75Q262 75 289 96T324 150L326 160Q329 170 338 169L410 164Q420 164 418 153L413 136Q397 72 343 32T215 -8Q141 -8 98 32Z" />
<glyph unicode="d" glyph-name="d" horiz-adv-x="477" d="M391 700T400 700H474Q484 700 482 690L399 10Q397 0 388 0H314Q304 0 306 10L310 44Q310 46 309 47T306 46Q264 -8 189 -8Q129 -8 97 28T56 139Q54 154 54 183Q54 207 58 253Q67 319 82 367Q130 517 258
517Q296 517 320 504T357 465Q358 463 359 463T362 466L389 690Q391 700 400 700ZM327 183T335 255Q340 293 340 321Q340 346 335 369Q325 434 270 434Q213 434 182 371Q161 324 153 255Q148 217 148 190Q148 163 152 144Q163 75 225 75Q282 75 308 142Q327 183
335 255Z" />
<glyph unicode="e" glyph-name="e" horiz-adv-x="463" d="M261 75T286 91T326 137Q330 145 339 144L403 129Q412 126 408 117Q382 58 333 25T217 -8Q141 -8 100 31T54 138Q53 146 53 164Q53 197 60 255Q67 318 78 362Q95 432 149 474T277 517Q354 517 397 474T441
358Q441 309 429 221Q428 211 418 211H152Q148 211 148 207Q144 171 145 158Q145 121 167 98T228 75Q261 75 286 91ZM230 434T204 412T168 351Q164 331 158 292Q158 288 161 288H340Q344 288 344 292Q346 308 348 350Q348 387 327 410T268 434Q230 434 204 412Z"
/>
<glyph unicode="f" glyph-name="f" horiz-adv-x="316" d="M273 620T255 600T230 530L228 513Q228 509 231 509H316Q320 509 322 506T324 499L317 440Q315 430 306 430H222Q220 430 219 429T217 426L166 10Q164 0 155 0H81Q77 0 75 3T73 10L124 426Q124 430 121
430H70Q60 430 62 440L69 499Q71 509 80 509H130Q132 509 133 510T135 513L137 535Q145 598 165 634T221 687T318 703H340Q345 703 347 700T349 693L340 630Q339 620 329 620H313Q273 620 255 600Z" />
<glyph unicode="g" glyph-name="g" horiz-adv-x="469" d="M366 509T375 509H449Q453 509 455 506T457 499L398 20Q370 -202 140 -202Q120 -202 109 -201Q100 -199 101 -190L111 -123Q113 -112 122 -114Q213 -118 254 -85T306 27L308 46Q309 48 308 49T304 48Q261
0 192 0Q129 0 91 38T51 146Q50 164 52 194T58 255Q59 262 65 304T80 371Q97 438 142 477T252 517Q322 517 355 470Q359 466 361 472L364 499Q366 509 375 509ZM328 206T334 256Q343 327 343 353Q343 388 323 411T267 434Q232 434 206 411T169 351Q160 317 152
256Q145 199 145 164Q146 127 167 104T224 81Q260 81 286 104T321 163Q328 206 334 256Z" />
<glyph unicode="h" glyph-name="h" horiz-adv-x="472" d="M375 516T408 480T442 380Q442 371 440 347L399 10Q397 0 388 0H314Q304 0 306 10L345 333Q346 340 346 353Q346 391 327 412T273 433Q234 433 207 406T174 332L134 10Q132 0 123 0H49Q45 0 43 3T41 10L124
690Q125 694 128 697T135 700H209Q218 700 218 690L190 468Q190 465 191 465T195 467Q238 516 312 516Q375 516 408 480Z" />
<glyph unicode="i" glyph-name="i" horiz-adv-x="226" d="M142 589T127 604T112 644Q112 676 132 696T182 717Q207 717 222 703T237 663Q237 632 216 611T166 589Q142 589 127 604ZM46 0T48 10L108 499Q110 509 119 509H192Q197 509 199 506T201 499L141 10Q139
0 130 0H56Q46 0 48 10Z" />
<glyph unicode="j" glyph-name="j" horiz-adv-x="220" d="M136 589T121 604T106 645Q106 676 126 696T176 717Q201 717 216 702T231 661Q231 631 211 610T161 589Q136 589 121 604ZM-85 -207T-83 -197L-76 -134Q-75 -124 -61 -124Q-15 -124 9 -100T38 -29L103
499Q105 509 114 509H188Q192 509 194 506T196 499L131 -28Q124 -91 103 -129T40 -187T-75 -207Q-85 -207 -83 -197Z" />
<glyph unicode="k" glyph-name="k" horiz-adv-x="453" d="M45 0T43 3T41 10L124 690Q125 694 128 697T135 700H209Q218 700 218 690L171 308Q170 306 172 305T175 306L351 503Q356 509 364 509H446Q451 509 452 505T450 497L319 346Q317 342 317 340L409 12V9Q409
5 407 3T400 0H322Q315 0 312 8L248 270Q246 276 243 271L156 175Q154 171 154 170L134 10Q132 0 123 0H49Q45 0 43 3Z" />
<glyph unicode="l" glyph-name="l" horiz-adv-x="207" d="M43 0T41 3T39 10L123 690Q123 694 126 697T133 700H207Q216 700 216 690L132 10Q130 0 121 0H48Q43 0 41 3Z" />
<glyph unicode="m" glyph-name="m" horiz-adv-x="720" d="M627 516T659 481T691 380Q691 370 689 346L647 10Q647 6 644 3T636 0H564Q559 0 557 3T555 10L595 332Q596 339 596 351Q596 390 578 411T526 433Q488 433 462 407T430 334L390 10Q388 0 379 0H307Q302
0 300 3T298 10L338 332Q339 338 339 351Q339 389 320 411T269 433Q231 433 205 407T173 334L133 10Q131 0 122 0H49Q45 0 43 3T41 10L101 499Q103 509 112 509H185Q195 509 193 499L190 469Q189 467 190 466T194 467Q239 516 311 516Q397 516 423 445Q425 441
430 446Q455 482 491 499T567 516Q627 516 659 481Z" />
<glyph unicode="n" glyph-name="n" horiz-adv-x="472" d="M375 516T408 480T442 380Q442 371 440 347L399 10Q397 0 388 0H314Q304 0 306 10L345 333Q346 340 346 353Q346 391 327 412T273 433Q234 433 207 406T174 332L134 10Q132 0 123 0H49Q45 0 43 3T41 10L101
499Q103 509 112 509H186Q196 509 194 499L190 468Q190 465 191 465T195 467Q238 516 312 516Q375 516 408 480Z" />
<glyph unicode="o" glyph-name="o" horiz-adv-x="475" d="M142 -8T99 32T53 143Q52 185 59 255Q67 321 81 366Q99 435 152 476T282 517Q357 517 400 476T445 367Q447 332 439 255Q430 184 417 143Q399 73 346 33T217 -8Q142 -8 99 32ZM263 75T290 98T329 159Q338
200 346 255Q352 309 352 350Q351 388 330 411T271 434Q234 434 207 411T169 350Q161 314 154 255Q146 196 146 159Q147 121 168 98T227 75Q263 75 290 98Z" />
<glyph unicode="p" glyph-name="p" horiz-adv-x="482" d="M451 355T451 326Q451 302 447 256Q438 190 423 142Q399 67 356 30T247 -8Q210 -8 187 4T149 43Q148 46 146 46T144 42L116 -181Q116 -185 113 -188T106 -191H32Q23 -191 23 -181L107 499Q109 509 118
509H192Q196 509 198 506T200 499L196 467Q196 461 200 465Q243 517 316 517Q376 517 408 481T449 370Q451 355 451 326ZM344 181T352 254Q357 296 357 325Q357 347 354 365Q348 399 331 416T281 434Q225 434 196 366Q179 324 171 254Q166 211 166 182Q166 160
169 140Q175 108 191 92T236 75Q292 75 323 138Q344 181 352 254Z" />
<glyph unicode="q" glyph-name="q" horiz-adv-x="482" d="M368 509T377 509H450Q455 509 457 506T459 499L375 -181Q375 -185 372 -188T365 -191H291Q282 -191 282 -181L310 43Q310 46 309 46T305 44Q268 -8 194 -8Q53 -8 53 170Q53 216 59 256Q65 314 84 370Q111
445 152 481T254 517Q329 517 357 463Q358 461 359 462T362 465L366 499Q368 509 377 509ZM326 180T335 254Q340 294 340 322Q340 349 336 366Q325 434 269 434Q237 434 215 417T179 365Q163 331 152 254Q148 212 148 196Q148 164 154 138Q169 75 226 75Q281 75
307 140Q326 180 335 254Z" />
<glyph unicode="r" glyph-name="r" horiz-adv-x="331" d="M337 514T356 502Q363 499 359 490L335 414Q332 404 323 408Q308 413 291 413Q279 413 273 412Q234 409 205 377T171 299L135 10Q133 0 124 0H50Q46 0 44 3T42 10L102 499Q104 509 113 509H187Q191 509
193 506T195 499L187 435Q187 432 188 432T191 433Q236 514 308 514Q337 514 356 502Z" />
<glyph unicode="s" glyph-name="s" horiz-adv-x="424" d="M122 -6T79 27T36 115Q36 125 37 130L39 140Q39 144 42 147T49 150H118Q123 150 125 147T127 140L126 134Q123 107 145 87T205 67Q245 67 270 88T296 140Q296 159 284 172T256 192T205 213Q143 234 107
263T70 348Q70 425 122 469T257 514Q329 514 370 480T412 389Q412 376 411 369V367Q409 357 400 357H332Q323 357 323 367L324 371Q327 400 307 419T248 438Q209 438 185 418T160 367Q160 341 181 328T251 295Q293 280 321 266T370 225T391 158Q391 84 337 39T196
-6Q122 -6 79 27Z" />
<glyph unicode="t" glyph-name="t" horiz-adv-x="313" d="M311 435T302 435H215Q211 435 211 431L177 157Q176 150 176 139Q176 108 190 96T234 83H253Q263 83 261 73L253 10Q253 0 243 0L205 -1Q144 -1 113 19T81 95Q81 104 83 124L121 431Q121 435 117 435H70Q61
435 61 445L68 499Q70 509 79 509H127Q128 509 129 510T131 513L145 628Q147 638 156 638H227Q237 638 235 628L221 513Q221 511 222 510T224 509H311Q321 509 319 499L313 445Q311 435 302 435Z" />
<glyph unicode="u" glyph-name="u" horiz-adv-x="470" d="M362 509T371 509H445Q449 509 451 506T453 499L393 10Q391 0 382 0H308Q304 0 302 3T300 10L304 41Q304 43 303 44T299 43Q259 -7 186 -7Q127 -7 89 26T51 123Q51 131 53 149L96 499Q98 509 107 509H180Q190
509 188 499L149 175Q148 167 148 153Q148 116 166 96T221 76Q261 76 288 103T321 178L360 499Q362 509 371 509Z" />
<glyph unicode="v" glyph-name="v" horiz-adv-x="432" d="M148 0T146 8L66 498V500Q66 509 76 509H158Q167 509 167 500L212 141Q213 139 214 139T216 141L349 500Q351 509 360 509L442 508Q447 508 449 505T449 497L250 8Q247 0 239 0H155Q148 0 146 8Z" />
<glyph unicode="w" glyph-name="w" horiz-adv-x="640" d="M127 0T127 9L66 498V500Q66 509 75 509H149Q158 509 158 500L192 153Q193 150 194 150T196 153L317 500Q319 509 328 509H394Q402 509 404 500L441 152Q441 149 442 149T444 152L566 500Q568 509 578
509L650 508Q655 508 657 505T657 497L475 9Q474 0 464 0H389Q381 0 379 9L342 342Q341 345 340 345T338 342L221 9Q220 5 217 3T210 0H137Q127 0 127 9Z" />
<glyph unicode="x" glyph-name="x" horiz-adv-x="435" d="M5 0T4 3T5 12L172 251Q175 254 173 257L65 497Q64 499 64 502Q64 509 73 509H153Q160 509 163 502L236 339Q236 338 238 338T241 339L354 502Q359 509 366 509H449Q454 509 456 506T454 497L287 257Q284
254 286 251L394 12Q395 10 395 7Q395 0 386 0H307Q300 0 296 7L224 171Q223 173 221 173T218 171L106 7Q99 0 93 0H11Q5 0 4 3Z" />
<glyph unicode="y" glyph-name="y" horiz-adv-x="419" d="M1 -199T-1 -196T-2 -189L5 -130Q7 -120 16 -120H17Q52 -119 73 -110T110 -77T142 -3Q143 -1 143 3L61 498V500Q61 509 71 509H150Q159 509 159 500L205 131Q206 129 207 129T209 131L345 500Q347 509
356 509L434 508Q446 508 441 497L222 -35Q193 -104 169 -137T108 -185T10 -199H4Q1 -199 -1 -196Z" />
<glyph unicode="z" glyph-name="z" horiz-adv-x="396" d="M14 0T12 3T10 10L19 80Q19 86 24 93L283 416Q285 418 284 419T281 421H75Q65 421 67 431L75 499Q77 509 86 509H397Q406 509 406 499L397 428Q395 419 391 415L129 92Q127 91 128 89T131 87H348Q357 87
357 77L348 10Q348 6 345 3T338 0H18Q14 0 12 3Z" />
<glyph unicode="{" glyph-name="braceleft" horiz-adv-x="304" d="M68 -130T68 -40Q68 -31 70 -13L96 200Q98 220 98 227Q98 284 55 290Q45 291 47 301L54 358Q54 367 64 369Q92 373 107 394T128 458L154 666Q167 784 276 784H343Q347 784 349 781T351 774L343
710Q343 706 340 703T332 700H303Q278 700 262 682T242 630L220 448Q214 401 199 374T155 332Q153 331 153 330T155 328Q193 306 193 244Q193 235 191 211L168 24Q167 18 167 6Q167 -47 212 -47H241Q245 -47 247 -50T249 -57L241 -120Q241 -124 238 -127T230 -130H163Q68
-130 68 -40Z" />
<glyph unicode="|" glyph-name="bar" horiz-adv-x="164" d="M11 -80T9 -77T7 -70L108 750Q108 754 111 757T119 760H192Q201 760 201 750L100 -70Q98 -80 89 -80H15Q11 -80 9 -77Z" />
<glyph unicode="}" glyph-name="braceright" horiz-adv-x="304" d="M3 -130Q-1 -130 -3 -127T-5 -120L3 -57Q3 -53 6 -50T14 -47H42Q94 -47 103 24L126 211Q136 301 191 328Q193 329 193 330T191 332Q172 344 163 363T153 415Q153 436 155 448L177 630Q178 636
178 648Q178 673 167 686T133 700H105Q101 700 99 703T97 710L105 774Q105 778 108 781T116 784H183Q277 784 277 693Q277 686 275 666L249 458Q247 440 247 432Q247 375 292 369Q302 367 300 358L293 301Q291 291 282 290Q254 286 239 265T218 200L191 -13Q178
-130 70 -130H3Z" />
<glyph unicode="~" glyph-name="asciitilde" horiz-adv-x="477" d="M308 221T290 228T246 252Q225 266 210 273T176 280Q134 280 102 240Q100 236 96 235T88 236L52 263Q45 269 49 276Q69 315 105 339T181 364Q204 364 220 358T259 338Q284 321 300 313T338 305Q358
305 372 315T403 344Q411 352 417 347L458 317Q466 311 460 304Q436 267 404 244T334 221Q308 221 290 228Z" />
<glyph unicode="&#xa0;" glyph-name="uni00A0" horiz-adv-x="194" />
<glyph unicode="&#xa1;" glyph-name="exclamdown" horiz-adv-x="286" d="M234 708T249 693T264 654Q264 622 244 601T193 580Q168 580 154 595T139 635Q139 666 159 687T209 708Q234 708 249 693ZM145 478T155 478H211Q220 478 219 468L173 21Q173 17 170 14T162
11H89Q84 11 82 14T80 21L144 468Q145 478 155 478Z" />
<glyph unicode="&#xa2;" glyph-name="cent" horiz-adv-x="456" d="M337 250Q340 260 349 259L421 254Q431 254 429 243L424 226Q411 171 368 134T265 85Q260 83 260 80L253 9Q253 5 250 2T242 -1H180Q170 -1 172 9L183 82Q183 86 180 87Q126 99 96 137T64 233Q63
279 71 346Q79 411 91 457Q107 514 146 552T242 602Q246 603 246 607L253 679Q255 689 264 689H326Q335 689 335 679L324 609Q324 606 327 604Q384 594 418 558T454 468Q455 461 455 444Q454 435 444 433L371 427H369Q362 427 362 434L361 438V450Q360 481 338
502T280 524Q243 524 216 501T180 440Q170 397 164 345Q157 285 158 248Q157 210 178 188T236 165Q273 165 300 186T335 240L337 250Z" />
<glyph unicode="&#xa3;" glyph-name="sterling" horiz-adv-x="541" d="M194 86T194 85T197 83H492Q501 83 501 73L493 10Q491 0 482 0H89Q79 0 81 10L89 75Q89 82 96 87Q141 120 152 199L164 297Q164 301 160 301H97Q87 301 89 311L96 369Q96 373 99 376T107 379H170Q174
379 174 383L189 504Q200 600 257 654T402 708Q468 708 506 671T554 563V561Q554 553 546 551L474 540H472Q464 540 464 548Q457 588 440 606T390 625Q345 625 317 595T282 507L267 383Q267 379 271 379H431Q435 379 437 376T439 369L432 311Q430 301 421 301H261Q257
301 257 297L245 201Q241 164 228 135T196 88Q194 86 194 85Z" />
<glyph unicode="&#xa4;" glyph-name="currency" horiz-adv-x="519" d="M476 255T430 192Q428 188 430 186L485 121Q487 119 487 116Q487 111 483 107L432 65Q429 62 425 62Q422 62 418 66L365 128Q363 130 359 128Q308 97 249 97Q192 97 149 126Q148 127 146 127T143
125L79 66Q71 59 65 65L24 107Q21 110 21 114Q21 118 25 121L91 182Q94 185 93 188Q72 227 72 277Q72 314 84 349T119 413Q121 416 118 419L63 483Q61 487 61 488Q61 493 66 497L117 539Q120 542 124 542T130 538L182 477Q184 475 187 476Q241 508 299 508Q360
508 406 473Q409 471 412 474L483 538Q491 545 497 539L537 497Q544 490 537 483L460 414Q458 412 458 408Q476 371 476 325Q476 255 430 192ZM153 241T183 210T259 179Q308 179 347 215T394 302L395 315Q395 362 365 394T289 426Q254 426 223 407T173 356T153
287Q153 241 183 210Z" />
<glyph unicode="&#xa5;" glyph-name="yen" horiz-adv-x="588" d="M574 700T576 697T575 688L383 343Q381 341 382 340T385 338H493Q497 338 499 335T501 328L497 292Q496 288 493 285T486 282H360Q358 282 357 281T355 278L347 214Q347 210 351 210H477Q487 210
485 200L481 164Q479 154 470 154H344Q341 154 339 150L322 11Q322 7 319 4T311 1H238Q229 1 229 11L246 150Q247 151 246 152T243 154H116Q107 154 107 164L112 200Q114 210 123 210H250Q254 210 254 214L262 278Q262 282 259 282H132Q127 282 125 285T123 292L128
328Q128 332 131 335T139 338H247Q251 338 251 343L143 688L142 691Q142 700 152 700H230Q239 700 240 692L322 408Q322 406 324 406T328 408L479 692Q482 700 490 700H569Q574 700 576 697Z" />
<glyph unicode="&#xa6;" glyph-name="brokenbar" horiz-adv-x="164" d="M69 392T67 395T65 402L108 750Q108 754 111 757T119 760H192Q201 760 201 750L158 402Q156 392 147 392H73Q69 392 67 395ZM11 -80T9 -77T7 -70L49 275Q51 285 60 285H134Q144 285 142 275L100
-70Q98 -80 89 -80H15Q11 -80 9 -77Z" />
<glyph unicode="&#xa7;" glyph-name="section" horiz-adv-x="423" d="M98 -206T60 -169T22 -68Q22 -52 23 -44L24 -22Q25 -18 28 -15T35 -12H109Q118 -12 118 -22L116 -33L115 -47Q115 -82 132 -102T178 -123Q213 -123 237 -95T262 -27Q262 -1 248 17T215 45T160
72Q119 91 96 110T61 161Q51 182 51 218Q51 255 60 284T89 340Q120 379 160 394Q165 396 161 399Q129 418 110 450T91 525Q91 574 115 616T183 683T279 708Q345 708 384 669T424 566Q424 551 423 543L421 527Q419 517 410 517H336Q326 517 328 527L329 537Q330
542 330 552Q330 585 313 605T268 625Q232 625 208 596T183 525Q183 491 206 469T276 429Q314 412 337 397T377 357Q397 322 397 282Q397 250 387 219T360 163Q332 117 287 103Q283 102 286 98Q355 57 355 -20Q355 -74 330 -116T262 -182T165 -206Q98 -206 60 -169ZM257
156T282 193Q302 229 302 268Q302 295 291 312Q283 327 268 335T234 343Q213 343 194 332T164 302Q149 278 146 248Q145 242 145 229Q145 208 152 193Q168 156 211 156Q257 156 282 193Z" />
<glyph unicode="&#xa8;" glyph-name="dieresis" horiz-adv-x="334" d="M279 591T264 606T249 645Q249 677 269 698T320 719Q344 719 359 704T374 663Q374 632 354 612T304 591Q279 591 264 606ZM112 591T97 606T82 645Q82 677 102 698T153 719Q177 719 192 704T207
663Q207 632 187 612T137 591Q112 591 97 606Z" />
<glyph unicode="&#xa9;" glyph-name="copyright" horiz-adv-x="810" d="M293 -8T223 31T113 141T74 301Q74 326 77 351Q89 451 145 532T287 661T472 708Q563 708 633 669T743 559T782 400Q782 377 779 351Q767 250 711 168T570 39T384 -8Q293 -8 223 31ZM474 53T544
92T661 199T718 351Q721 372 721 392Q721 465 689 523T598 614T465 647Q383 647 312 608T195 502T138 351Q135 330 135 310Q135 236 167 178T258 86T392 53Q474 53 544 92ZM367 176T343 198T319 257Q319 268 320 273L338 426Q344 470 374 496T450 522Q491 522 515
501T540 442Q540 433 539 428V426Q539 422 536 419T528 416L494 415Q484 415 486 425V430Q489 449 477 461T444 474Q423 474 409 462T392 430L372 268Q370 248 381 236T414 224Q435 224 449 236T466 268L467 274Q469 284 478 284L512 283Q522 283 520 273V271Q515
228 484 202T408 176Q367 176 343 198Z" />
<glyph unicode="&#xaa;" glyph-name="ordfeminine" horiz-adv-x="298" d="M249 564Q253 564 253 568L256 591L257 602Q257 626 245 640T206 654Q186 654 170 644T148 617Q143 608 135 609L94 612Q83 614 86 623Q96 661 130 684T213 708Q263 708 291 683T319 615Q319
604 318 598L291 377Q289 367 280 367H238Q228 367 230 377L231 390Q232 392 231 393T227 392Q198 362 148 362Q109 362 82 380T55 442Q55 505 93 534T198 564H249ZM194 413T215 428T241 471L246 510Q246 514 243 514H194Q159 514 138 498T117 453Q117 433 130
423T165 413Q194 413 215 428ZM36 301T39 304T46 307H280Q289 307 289 297L284 257Q282 247 273 247H39Q29 247 31 257L35 297Q36 301 39 304Z" />
<glyph unicode="&#xab;" glyph-name="guillemotleft" horiz-adv-x="483" d="M250 115Q250 107 241 107H173Q166 107 162 113L77 274Q76 275 76 279Q76 284 79 288L204 449Q208 455 216 455H284Q290 455 291 452T289 443L165 284Q163 280 164 278L249 119L250 115ZM404
118T404 115Q404 112 401 110T394 107H326Q319 107 316 113L232 274Q230 278 230 280Q230 285 233 288L357 449Q362 455 369 455H437Q443 455 444 452T442 443L318 284Q317 282 317 278L403 119Q404 118 404 115Z" />
<glyph unicode="&#xac;" glyph-name="logicalnot" horiz-adv-x="454" d="M55 350T64 350H436Q446 350 444 340L424 171Q423 167 420 164T413 161H355Q351 161 349 164T347 171L359 268Q359 272 355 272H55Q46 272 46 282L53 340Q55 350 64 350Z" />
<glyph unicode="&#xad;" glyph-name="uni00AD" horiz-adv-x="349" d="M45 264T45 274L53 337Q55 347 64 347H331Q341 347 339 337L331 274Q331 270 328 267T321 264H54Q45 264 45 274Z" />
<glyph unicode="&#xae;" glyph-name="registered" horiz-adv-x="429" d="M332 712T371 690T431 630T453 543Q453 481 423 430T343 348T234 318Q185 318 146 340T86 401T64 490Q64 550 94 601T174 682T282 712Q332 712 371 690ZM281 362T317 382T378 438T408 518Q409
524 409 537Q409 594 372 631T277 668Q233 668 194 645T132 583T109 496Q109 437 145 400T239 362Q281 362 317 382ZM328 540T320 526T296 505Q292 501 293 499L310 437L311 434Q311 425 301 425H283Q275 425 272 433L258 496Q257 499 254 499H243Q240 499 238
495L231 435Q229 425 220 425H204Q200 425 198 428T196 435L216 596Q218 606 227 606H281Q303 606 315 594T328 560Q328 540 320 526ZM248 575T248 571L243 530Q242 529 243 528T246 526H266Q276 526 283 532T292 550V555Q292 575 272 575H252Q248 575 248 571Z"
/>
<glyph unicode="&#xaf;" glyph-name="overscore" horiz-adv-x="346" d="M108 589T108 599L114 647Q116 657 125 657H343Q347 657 349 654T351 647L345 599Q343 589 334 589H117Q108 589 108 599Z" />
<glyph unicode="&#xb0;" glyph-name="degree" horiz-adv-x="358" d="M158 482T119 522T80 625Q80 674 104 716T170 783T258 808Q319 808 358 768T398 667Q398 617 373 575T307 507T218 482Q158 482 119 522ZM270 547T301 580T333 660Q333 696 310 720T251 745Q223
745 198 730T158 688T143 633Q143 596 166 572T226 547Q270 547 301 580Z" />
<glyph unicode="&#xb1;" glyph-name="plusminus" horiz-adv-x="454" d="M453 404T451 394L444 336Q444 332 441 329T433 326H290Q287 326 285 322L267 175Q267 171 264 168T256 165H200Q190 165 192 175L210 322Q210 326 206 326H62Q53 326 53 336L61 394Q61 398
64 401T71 404H216Q220 404 220 408L239 558Q239 562 242 565T250 568H306Q316 568 314 558L296 408Q296 404 299 404H443Q453 404 451 394ZM14 11T14 21L21 79Q23 89 32 89H404Q414 89 412 79L405 21Q403 11 394 11H23Q14 11 14 21Z" />
<glyph unicode="&#xb2;" glyph-name="uni00B2" horiz-adv-x="284" d="M65 433T63 436T61 443L66 482Q66 488 72 494L125 554Q168 602 206 647Q263 717 263 754Q263 776 251 788T217 801Q194 801 179 786T160 746L158 729Q156 719 147 719H103Q98 719 96 722T94
729L97 752Q105 800 140 829T225 858Q272 858 299 833T326 763Q326 730 312 698T269 629Q238 588 155 494Q153 492 153 491T156 489H294Q298 489 300 486T302 479L298 443Q296 433 287 433H69Q65 433 63 436Z" />
<glyph unicode="&#xb3;" glyph-name="uni00B3" horiz-adv-x="288" d="M309 612T309 587Q309 571 308 563Q304 530 291 503Q275 466 246 446T175 426Q132 426 106 450T76 515Q75 520 75 531Q75 546 76 553Q77 563 87 563H130Q139 563 139 553L138 541L139 529Q141
508 152 496T182 483Q215 483 232 515Q243 542 246 567Q248 587 248 595Q248 609 245 621Q236 654 203 654Q194 654 186 650Q178 645 173 651L155 676Q152 679 152 682Q152 686 156 690L253 791Q256 796 252 796H121Q112 796 112 806L117 841Q117 845 120 848T128
851H329Q334 851 336 848T338 841L333 803Q333 798 328 791L244 700Q243 698 243 697T245 695Q268 691 283 674T305 629Q309 612 309 587Z" />
<glyph unicode="&#xb4;" glyph-name="acute" horiz-adv-x="196" d="M81 573T80 576T81 585L152 693Q155 700 164 700H226Q232 700 233 697T232 688L148 579Q144 573 136 573H87Q81 573 80 576Z" />
<glyph unicode="&#xb5;" glyph-name="uni00B5" horiz-adv-x="478" d="M368 509T377 509H450Q454 509 456 506T458 499L398 10Q396 0 387 0H314Q304 0 306 10L310 42Q310 44 309 45T305 44Q266 -7 192 -7Q164 -7 138 1Q133 3 133 -2L110 -190Q109 -194 106 -197T99
-200H25Q16 -200 16 -190L101 499Q103 509 112 509H186Q196 509 194 499L154 175Q153 168 153 155Q153 76 226 76Q266 76 293 103T326 178L366 499Q368 509 377 509Z" />
<glyph unicode="&#xb6;" glyph-name="paragraph" horiz-adv-x="524" d="M513 700Q523 700 521 690L413 -190Q411 -200 402 -200H348Q339 -200 339 -190L439 622Q439 626 436 626H346Q344 626 343 625T341 622L241 -190Q241 -194 238 -197T231 -200H174Q164 -200
166 -190L219 247Q221 251 216 251Q147 258 107 309T67 438Q67 462 69 475Q77 539 108 590T187 670T294 700H513Z" />
<glyph unicode="&#xb7;" glyph-name="middot" horiz-adv-x="206" d="M86 219T71 234T56 273Q56 305 76 326T127 347Q151 347 166 332T181 291Q181 260 161 240T111 219Q86 219 71 234Z" />
<glyph unicode="&#xb8;" glyph-name="cedilla" horiz-adv-x="137" d="M-40 -179T-37 -170L-29 -138Q-26 -128 -16 -130Q-6 -132 -1 -132Q31 -132 41 -101Q44 -92 44 -84Q44 -51 8 -12Q5 -9 5 -6Q5 -4 8 -2T15 0H54Q61 0 64 -3L67 -7Q106 -46 106 -92Q106 -111
100 -127Q88 -160 64 -174T10 -188Q-9 -188 -31 -182Q-40 -179 -37 -170Z" />
<glyph unicode="&#xb9;" glyph-name="uni00B9" horiz-adv-x="164" d="M151 853T159 853H206Q211 853 213 850T215 843L166 443Q164 433 155 433H111Q101 433 103 443L145 790Q146 791 145 792T142 793L107 787H105Q97 787 98 796L101 825Q103 833 110 836L147
851Q151 853 159 853Z" />
<glyph unicode="&#xba;" glyph-name="ordmasculine" horiz-adv-x="312" d="M132 364T105 390T75 463Q73 498 78 536Q82 567 92 610Q105 655 140 681T223 708Q271 708 298 682T327 610Q329 575 324 537Q318 493 309 463Q296 417 262 391T180 364Q132 364 105 390ZM209
419T226 434T250 473Q256 494 262 536Q266 580 266 598Q265 623 252 638T216 653Q194 653 177 638T152 598Q144 572 141 536Q137 507 137 473Q137 449 151 434T187 419Q209 419 226 434ZM41 252T39 255T37 262L42 304Q44 314 53 314H297Q301 314 303 311T305 304L300
262Q298 252 289 252H45Q41 252 39 255Z" />
<glyph unicode="&#xbb;" glyph-name="guillemotright" horiz-adv-x="483" d="M72 107T71 110T73 119L197 278Q199 282 198 284L113 443Q111 447 111 448Q111 455 121 455H189Q196 455 200 449L285 288Q286 287 286 283Q286 279 283 274L158 113Q154 107 146 107H78Q72
107 71 110ZM226 107T225 110T227 119L351 278Q353 282 352 284L267 443Q265 447 265 448Q265 455 275 455H343Q350 455 354 449L439 288Q440 287 440 283Q440 279 437 274L312 113Q308 107 300 107H232Q226 107 225 110Z" />
<glyph unicode="&#xbc;" glyph-name="onequarter" horiz-adv-x="725" d="M132 700T140 700H187Q192 700 194 697T196 690L147 290Q145 280 136 280H92Q82 280 84 290L126 637Q127 638 126 639T123 640L88 634H86Q78 634 79 643L82 672Q84 680 91 683L128 698Q132
700 140 700ZM65 0T64 3T66 12L557 693Q562 700 569 700H617Q623 700 624 697T622 688L132 7Q127 0 120 0H71Q65 0 64 3ZM700 169T700 159L695 120Q693 110 684 110H667Q663 110 663 106L651 10Q649 0 640 0H597Q592 0 590 3T588 10L600 106Q600 108 599 109T597
110H443Q433 110 435 120L439 153Q439 158 442 165L569 412Q572 420 580 420H627Q632 420 634 417T633 408L516 174Q515 172 516 171T518 169H604Q608 169 608 173L618 249Q618 253 621 256T628 259H672Q681 259 681 249L671 173Q671 169 675 169H691Q700 169 700
159Z" />
<glyph unicode="&#xbd;" glyph-name="onehalf" horiz-adv-x="714" d="M132 700T140 700H187Q192 700 194 697T196 690L147 290Q145 280 136 280H92Q82 280 84 290L126 637Q127 638 126 639T123 640L88 634H86Q78 634 79 643L82 672Q84 680 91 683L128 698Q132
700 140 700ZM65 0T64 3T66 12L557 693Q562 700 569 700H617Q623 700 624 697T622 688L132 7Q127 0 120 0H71Q65 0 64 3ZM438 0T436 3T434 10L439 49Q439 55 445 61L498 121Q541 169 579 214Q636 284 636 321Q636 343 624 355T590 368Q567 368 552 353T533 313L531
296Q529 286 520 286H476Q471 286 469 289T467 296L470 319Q478 367 513 396T598 425Q645 425 672 400T699 330Q699 297 685 265T642 196Q611 155 528 61Q526 59 526 58T529 56H667Q671 56 673 53T675 46L671 10Q669 0 660 0H442Q438 0 436 3Z" />
<glyph unicode="&#xbe;" glyph-name="threequarters" horiz-adv-x="805" d="M291 462T291 437Q291 421 290 413Q286 380 273 353Q257 316 228 296T157 276Q114 276 88 300T58 365Q57 370 57 381Q57 396 58 403Q59 413 69 413H112Q121 413 121 403L120 391L121
379Q123 358 134 346T164 333Q197 333 214 365Q225 392 228 417Q230 437 230 445Q230 459 227 471Q218 504 185 504Q176 504 168 500Q160 495 155 501L137 526Q134 529 134 532Q134 536 138 540L235 641Q238 646 234 646H103Q94 646 94 656L99 691Q99 695 102 698T110
701H311Q316 701 318 698T320 691L315 653Q315 648 310 641L226 550Q225 548 225 547T227 545Q250 541 265 524T287 479Q291 462 291 437ZM147 0T146 3T148 12L639 693Q644 700 651 700H699Q705 700 706 697T704 688L214 7Q209 0 202 0H153Q147 0 146 3ZM782 169T782
159L777 120Q775 110 766 110H749Q745 110 745 106L733 10Q731 0 722 0H679Q674 0 672 3T670 10L682 106Q682 108 681 109T679 110H525Q515 110 517 120L521 153Q521 158 524 165L651 412Q654 420 662 420H709Q714 420 716 417T715 408L598 174Q597 172 598 171T600
169H686Q690 169 690 173L700 249Q700 253 703 256T710 259H754Q763 259 763 249L753 173Q753 169 757 169H773Q782 169 782 159Z" />
<glyph unicode="&#xbf;" glyph-name="questiondown" horiz-adv-x="425" d="M296 499T311 484T326 445Q326 414 305 393T255 371Q230 371 215 386T200 425Q200 456 221 477T271 499Q296 499 311 484ZM290 292T290 282L284 232Q278 187 255 159T189 97Q145 63 123
34T101 -42Q101 -79 121 -100T177 -122Q218 -122 246 -95T281 -22L284 4Q284 8 287 11T295 14L368 10Q378 10 376 0L374 -22Q364 -106 306 -157T164 -209Q91 -209 49 -168T6 -56Q6 -47 8 -27Q14 17 31 49T68 101T121 146Q154 172 171 191T191 237L197 282Q197 286
200 289T208 292H281Q290 292 290 282Z" />
<glyph unicode="&#xc0;" glyph-name="Agrave" horiz-adv-x="517" d="M382 0T380 9L366 125Q365 128 361 128H147Q143 128 141 125L99 9Q96 0 87 0H12Q7 0 5 3T4 11L267 691Q271 700 279 700H370Q378 700 380 691L477 11V9Q477 5 474 3T467 0H390Q382 0 380 9ZM171
207T172 206T175 204H351Q353 204 354 205T355 208L310 570Q309 572 308 572T306 570L172 208Q171 207 172 206ZM366 772Q366 764 356 764H307Q300 764 296 770L240 879L239 883Q239 891 248 891H309Q316 891 320 884L365 776L366 772Z" />
<glyph unicode="&#xc1;" glyph-name="Aacute" horiz-adv-x="517" d="M382 0T380 9L366 125Q365 128 361 128H147Q143 128 141 125L99 9Q96 0 87 0H12Q7 0 5 3T4 11L267 691Q271 700 279 700H370Q378 700 380 691L477 11V9Q477 5 474 3T467 0H390Q382 0 380 9ZM171
207T172 206T175 204H351Q353 204 354 205T355 208L310 570Q309 572 308 572T306 570L172 208Q171 207 172 206ZM286 764T285 767T286 776L357 884Q360 891 369 891H431Q437 891 438 888T437 879L353 770Q349 764 341 764H292Q286 764 285 767Z" />
<glyph unicode="&#xc2;" glyph-name="Acircumflex" horiz-adv-x="517" d="M382 0T380 9L366 125Q365 128 361 128H147Q143 128 141 125L99 9Q96 0 87 0H12Q7 0 5 3T4 11L267 691Q271 700 279 700H370Q378 700 380 691L477 11V9Q477 5 474 3T467 0H390Q382 0 380
9ZM171 207T172 206T175 204H351Q353 204 354 205T355 208L310 570Q309 572 308 572T306 570L172 208Q171 207 172 206ZM208 766T207 769T209 778L293 885Q297 891 305 891H388Q396 891 398 885L458 778Q460 774 460 773Q460 766 450 766H392Q384 766 381 773L345
845Q344 847 342 847T339 845L285 773Q278 766 272 766H214Q208 766 207 769Z" />
<glyph unicode="&#xc3;" glyph-name="Atilde" horiz-adv-x="517" d="M382 0T380 9L366 125Q365 128 361 128H147Q143 128 141 125L99 9Q96 0 87 0H12Q7 0 5 3T4 11L267 691Q271 700 279 700H370Q378 700 380 691L477 11V9Q477 5 474 3T467 0H390Q382 0 380 9ZM171
207T172 206T175 204H351Q353 204 354 205T355 208L310 570Q309 572 308 572T306 570L172 208Q171 207 172 206ZM368 790T339 810Q334 813 326 818T312 826T297 829Q283 829 272 824T249 804Q243 795 235 801L211 823Q204 828 209 836Q226 865 249 879T299 894Q326
894 357 871Q361 868 369 863T384 854T399 851Q426 851 447 878Q453 887 461 881L484 860Q487 859 487 853Q487 848 483 843Q466 816 441 803T392 790Q368 790 339 810Z" />
<glyph unicode="&#xc4;" glyph-name="Adieresis" horiz-adv-x="517" d="M382 0T380 9L366 125Q365 128 361 128H147Q143 128 141 125L99 9Q96 0 87 0H12Q7 0 5 3T4 11L267 691Q271 700 279 700H370Q378 700 380 691L477 11V9Q477 5 474 3T467 0H390Q382 0 380
9ZM171 207T172 206T175 204H351Q353 204 354 205T355 208L310 570Q309 572 308 572T306 570L172 208Q171 207 172 206ZM393 782T378 797T363 836Q363 868 383 889T434 910Q458 910 473 895T488 854Q488 823 468 803T418 782Q393 782 378 797ZM226 782T211 797T196
836Q196 868 216 889T267 910Q291 910 306 895T321 854Q321 823 301 803T251 782Q226 782 211 797Z" />
<glyph unicode="&#xc5;" glyph-name="Aring" horiz-adv-x="517" d="M382 0T380 9L366 125Q365 128 361 128H147Q143 128 141 125L99 9Q96 0 87 0H12Q7 0 5 3T4 11L267 691Q271 700 279 700H370Q378 700 380 691L477 11V9Q477 5 474 3T467 0H390Q382 0 380 9ZM171
207T172 206T175 204H351Q353 204 354 205T355 208L310 570Q309 572 308 572T306 570L172 208Q171 207 172 206ZM289 764T262 792T234 863Q234 898 251 927T298 974T360 991Q403 991 430 964T457 893Q457 858 440 829T394 782T332 764Q289 764 262 792ZM364 818T383
838T403 886Q403 909 389 923T353 938Q327 938 308 918T288 868Q288 846 302 832T338 818Q364 818 383 838Z" />
<glyph unicode="&#xc6;" glyph-name="AE" horiz-adv-x="802" d="M816 617T807 617H537Q535 617 534 616T532 613L506 397Q505 396 506 395T509 393H684Q688 393 690 390T692 383L684 320Q684 316 681 313T673 310H499Q496 310 494 306L468 87Q467 86 468 85T471
83H742Q746 83 748 80T750 73L742 10Q742 6 739 3T731 0H372Q368 0 366 3T364 10L378 124Q378 128 375 128H177Q175 128 172 125L104 7Q100 0 92 0H13Q8 0 7 3T7 12L403 693Q407 700 416 700H817Q822 700 824 697T826 690L818 627Q816 617 807 617ZM218 207T219
206T222 204H384Q388 204 388 208L434 573Q435 576 433 576T429 574L220 209Q218 207 219 206Z" />
<glyph unicode="&#xc7;" glyph-name="Ccedilla" horiz-adv-x="514" d="M507 494T504 491T496 488L422 484Q412 484 414 494L416 509Q417 515 417 526Q417 571 390 598T317 625Q266 625 231 593T190 509L151 191Q150 185 150 172Q150 128 177 102T250 75Q300 75
335 107T377 191L378 205Q380 215 389 215L462 211Q467 211 469 208T471 201L470 194Q460 109 405 56T265 -6Q260 -8 263 -11Q294 -48 294 -89Q294 -107 288 -125Q277 -158 253 -172T198 -186Q179 -186 157 -180Q148 -176 151 -168L160 -135Q163 -125 173 -128Q183
-130 188 -130Q203 -130 214 -122T229 -98Q232 -89 232 -80Q232 -44 191 -5Q191 -4 190 -3T187 -2Q125 11 91 55T56 165Q56 175 58 197L96 504Q107 597 170 652T327 708Q412 708 461 662T510 538Q510 529 508 507L507 498Q507 494 504 491Z" />
<glyph unicode="&#xc8;" glyph-name="Egrave" horiz-adv-x="500" d="M515 623T512 620T504 617H223Q219 617 219 613L192 397Q192 393 196 393H381Q391 393 389 383L382 320Q380 310 371 310H186Q184 310 183 309T181 306L154 87Q154 83 158 83H439Q449 83 447
73L440 10Q438 0 429 0H60Q50 0 52 10L135 690Q137 700 146 700H515Q525 700 523 690L515 627Q515 623 512 620ZM371 772Q371 764 361 764H312Q305 764 301 770L245 879L244 883Q244 891 253 891H314Q321 891 325 884L370 776L371 772Z" />
<glyph unicode="&#xc9;" glyph-name="Eacute" horiz-adv-x="500" d="M515 623T512 620T504 617H223Q219 617 219 613L192 397Q192 393 196 393H381Q391 393 389 383L382 320Q380 310 371 310H186Q184 310 183 309T181 306L154 87Q154 83 158 83H439Q449 83 447
73L440 10Q438 0 429 0H60Q50 0 52 10L135 690Q137 700 146 700H515Q525 700 523 690L515 627Q515 623 512 620ZM291 764T290 767T291 776L362 884Q365 891 374 891H436Q442 891 443 888T442 879L358 770Q354 764 346 764H297Q291 764 290 767Z" />
<glyph unicode="&#xca;" glyph-name="Ecircumflex" horiz-adv-x="500" d="M515 623T512 620T504 617H223Q219 617 219 613L192 397Q192 393 196 393H381Q391 393 389 383L382 320Q380 310 371 310H186Q184 310 183 309T181 306L154 87Q154 83 158 83H439Q449 83
447 73L440 10Q438 0 429 0H60Q50 0 52 10L135 690Q137 700 146 700H515Q525 700 523 690L515 627Q515 623 512 620ZM213 766T212 769T214 778L298 885Q302 891 310 891H393Q401 891 403 885L463 778Q465 774 465 773Q465 766 455 766H397Q389 766 386 773L350
845Q349 847 347 847T344 845L290 773Q283 766 277 766H219Q213 766 212 769Z" />
<glyph unicode="&#xcb;" glyph-name="Edieresis" horiz-adv-x="500" d="M515 623T512 620T504 617H223Q219 617 219 613L192 397Q192 393 196 393H381Q391 393 389 383L382 320Q380 310 371 310H186Q184 310 183 309T181 306L154 87Q154 83 158 83H439Q449 83
447 73L440 10Q438 0 429 0H60Q50 0 52 10L135 690Q137 700 146 700H515Q525 700 523 690L515 627Q515 623 512 620ZM397 782T382 797T367 836Q367 868 387 889T438 910Q462 910 477 895T492 854Q492 823 472 803T422 782Q397 782 382 797ZM230 782T215 797T200
836Q200 868 220 889T271 910Q295 910 310 895T325 854Q325 823 305 803T255 782Q230 782 215 797Z" />
<glyph unicode="&#xcc;" glyph-name="Igrave" horiz-adv-x="233" d="M50 0T52 10L135 690Q137 700 146 700H220Q230 700 228 690L145 10Q143 0 134 0H60Q50 0 52 10ZM225 772Q225 764 215 764H166Q159 764 155 770L99 879L98 883Q98 891 107 891H168Q175 891 179
884L224 776L225 772Z" />
<glyph unicode="&#xcd;" glyph-name="Iacute" horiz-adv-x="233" d="M50 0T52 10L135 690Q137 700 146 700H220Q230 700 228 690L145 10Q143 0 134 0H60Q50 0 52 10ZM145 764T144 767T145 776L216 884Q219 891 228 891H290Q296 891 297 888T296 879L212 770Q208
764 200 764H151Q145 764 144 767Z" />
<glyph unicode="&#xce;" glyph-name="Icircumflex" horiz-adv-x="233" d="M50 0T52 10L135 690Q137 700 146 700H220Q230 700 228 690L145 10Q143 0 134 0H60Q50 0 52 10ZM67 766T66 769T68 778L152 885Q156 891 164 891H247Q255 891 257 885L317 778Q319 774
319 773Q319 766 309 766H251Q243 766 240 773L204 845Q203 847 201 847T198 845L144 773Q137 766 131 766H73Q67 766 66 769Z" />
<glyph unicode="&#xcf;" glyph-name="Idieresis" horiz-adv-x="233" d="M50 0T52 10L135 690Q137 700 146 700H220Q230 700 228 690L145 10Q143 0 134 0H60Q50 0 52 10ZM251 782T236 797T221 836Q221 868 241 889T292 910Q316 910 331 895T346 854Q346 823 326
803T276 782Q251 782 236 797ZM84 782T69 797T54 836Q54 868 74 889T125 910Q149 910 164 895T179 854Q179 823 159 803T109 782Q84 782 69 797Z" />
<glyph unicode="&#xd0;" glyph-name="Eth" horiz-adv-x="575" d="M474 700T521 656T568 536Q568 526 566 506L527 194Q517 106 457 53T305 0H109Q104 0 102 3T100 10L139 329Q140 330 139 331T136 333H101Q91 333 93 343L98 386Q100 396 109 396H144Q148 396 148
400L184 690Q184 694 187 697T195 700H391Q474 700 521 656ZM471 496Q472 504 472 518Q472 564 448 590T382 617H272Q269 617 267 613L241 400Q241 396 245 396H326Q335 396 335 386L329 343Q327 333 318 333H237Q234 333 232 329L203 87Q202 86 203 85T206 83L317
84Q364 84 396 116T435 204L471 496Z" />
<glyph unicode="&#xd1;" glyph-name="Ntilde" horiz-adv-x="569" d="M472 694T475 697T483 700H556Q561 700 563 697T565 690L481 10Q481 6 478 3T470 0H393Q383 0 382 7L208 492Q206 494 205 494T203 491L145 10Q143 0 134 0H60Q50 0 52 10L135 690Q137 700 146
700H224Q233 700 234 693L408 208Q409 206 410 206T413 209L472 690Q472 694 475 697ZM393 793T364 813Q359 816 351 821T337 829T322 832Q308 832 297 827T274 807Q268 798 260 804L236 826Q229 831 234 839Q251 868 274 882T324 897Q351 897 382 874Q386 871
394 866T409 857T424 854Q451 854 472 881Q478 890 486 884L509 863Q512 862 512 856Q512 851 508 846Q491 819 466 806T417 793Q393 793 364 813Z" />
<glyph unicode="&#xd2;" glyph-name="Ograve" horiz-adv-x="525" d="M156 -9T107 39T57 169Q57 179 59 203L95 497Q102 559 134 607T216 681T329 708Q415 708 465 660T515 531Q515 521 513 497L477 203Q465 108 400 50T241 -9Q156 -9 107 39ZM304 75T340 109T383
199L420 499Q421 506 421 519Q421 567 394 596T319 625Q267 625 232 590T188 499L152 199Q151 192 151 177Q151 130 178 103T252 75Q304 75 340 109ZM371 772Q371 764 361 764H312Q305 764 301 770L245 879L244 883Q244 891 253 891H314Q321 891 325 884L370 776L371
772Z" />
<glyph unicode="&#xd3;" glyph-name="Oacute" horiz-adv-x="525" d="M156 -9T107 39T57 169Q57 179 59 203L95 497Q102 559 134 607T216 681T329 708Q415 708 465 660T515 531Q515 521 513 497L477 203Q465 108 400 50T241 -9Q156 -9 107 39ZM304 75T340 109T383
199L420 499Q421 506 421 519Q421 567 394 596T319 625Q267 625 232 590T188 499L152 199Q151 192 151 177Q151 130 178 103T252 75Q304 75 340 109ZM290 764T289 767T290 776L361 884Q364 891 373 891H435Q441 891 442 888T441 879L357 770Q353 764 345 764H296Q290
764 289 767Z" />
<glyph unicode="&#xd4;" glyph-name="Ocircumflex" horiz-adv-x="525" d="M156 -9T107 39T57 169Q57 179 59 203L95 497Q102 559 134 607T216 681T329 708Q415 708 465 660T515 531Q515 521 513 497L477 203Q465 108 400 50T241 -9Q156 -9 107 39ZM304 75T340
109T383 199L420 499Q421 506 421 519Q421 567 394 596T319 625Q267 625 232 590T188 499L152 199Q151 192 151 177Q151 130 178 103T252 75Q304 75 340 109ZM212 766T211 769T213 778L297 885Q301 891 309 891H392Q400 891 402 885L462 778Q464 774 464 773Q464
766 454 766H396Q388 766 385 773L349 845Q348 847 346 847T343 845L289 773Q282 766 276 766H218Q212 766 211 769Z" />
<glyph unicode="&#xd5;" glyph-name="Otilde" horiz-adv-x="525" d="M156 -9T107 39T57 169Q57 179 59 203L95 497Q102 559 134 607T216 681T329 708Q415 708 465 660T515 531Q515 521 513 497L477 203Q465 108 400 50T241 -9Q156 -9 107 39ZM304 75T340 109T383
199L420 499Q421 506 421 519Q421 567 394 596T319 625Q267 625 232 590T188 499L152 199Q151 192 151 177Q151 130 178 103T252 75Q304 75 340 109ZM372 790T343 810Q338 813 330 818T316 826T301 829Q287 829 276 824T253 804Q247 795 239 801L215 823Q208 828
213 836Q230 865 253 879T303 894Q330 894 361 871Q365 868 373 863T388 854T403 851Q430 851 451 878Q457 887 465 881L488 860Q491 859 491 853Q491 848 487 843Q470 816 445 803T396 790Q372 790 343 810Z" />
<glyph unicode="&#xd6;" glyph-name="Odieresis" horiz-adv-x="525" d="M156 -9T107 39T57 169Q57 179 59 203L95 497Q102 559 134 607T216 681T329 708Q415 708 465 660T515 531Q515 521 513 497L477 203Q465 108 400 50T241 -9Q156 -9 107 39ZM304 75T340 109T383
199L420 499Q421 506 421 519Q421 567 394 596T319 625Q267 625 232 590T188 499L152 199Q151 192 151 177Q151 130 178 103T252 75Q304 75 340 109ZM397 782T382 797T367 836Q367 868 387 889T438 910Q462 910 477 895T492 854Q492 823 472 803T422 782Q397 782
382 797ZM230 782T215 797T200 836Q200 868 220 889T271 910Q295 910 310 895T325 854Q325 823 305 803T255 782Q230 782 215 797Z" />
<glyph unicode="&#xd7;" glyph-name="multiply" horiz-adv-x="393" d="M391 434T391 430Q391 425 387 422L273 317Q270 314 272 311L360 207Q362 203 362 201Q362 196 358 193L314 152Q310 149 306 149T300 152L212 256Q209 259 206 256L91 151Q88 148 84 148T78
151L43 192Q41 196 41 198Q41 203 45 206L159 311Q163 314 160 317L70 423Q68 427 68 428Q68 433 72 437L117 478Q120 481 124 481T130 478L220 372Q223 369 226 372L341 477Q344 480 348 480T354 477L389 436Q391 434 391 430Z" />
<glyph unicode="&#xd8;" glyph-name="Oslash" horiz-adv-x="575" d="M555 693T550 686L502 613Q501 610 502 607Q516 573 516 531Q516 521 514 497L478 203Q466 108 401 50T242 -9Q171 -9 124 27Q121 29 118 25L83 -30Q80 -34 76 -35T69 -34L24 -5Q20 -3 20 1T21
9L73 87Q75 90 73 93Q59 127 59 169Q59 179 61 203L97 497Q104 559 136 607T218 681T330 708Q402 708 451 672Q455 670 456 674L492 729Q495 733 499 734T506 732L549 699Q555 693 550 686ZM157 224Q156 221 157 221T161 223L399 586Q401 589 399 592Q371 625 320
625Q268 625 233 590T190 499L157 224ZM418 476Q419 479 418 479T414 477L176 112Q174 108 176 107Q203 75 253 75Q305 75 341 109T384 199L418 476Z" />
<glyph unicode="&#xd9;" glyph-name="Ugrave" horiz-adv-x="542" d="M166 -8T117 40T68 172Q68 182 70 206L129 690Q131 700 140 700H214Q224 700 222 690L162 200Q161 193 161 180Q161 132 188 104T260 75Q312 75 347 109T390 200L450 690Q451 694 454 697T461
700H535Q544 700 544 690L484 206Q472 109 408 51T250 -8Q166 -8 117 40ZM380 772Q380 764 370 764H321Q314 764 310 770L254 879L253 883Q253 891 262 891H323Q330 891 334 884L379 776L380 772Z" />
<glyph unicode="&#xda;" glyph-name="Uacute" horiz-adv-x="542" d="M166 -8T117 40T68 172Q68 182 70 206L129 690Q131 700 140 700H214Q224 700 222 690L162 200Q161 193 161 180Q161 132 188 104T260 75Q312 75 347 109T390 200L450 690Q451 694 454 697T461
700H535Q544 700 544 690L484 206Q472 109 408 51T250 -8Q166 -8 117 40ZM299 764T298 767T299 776L370 884Q373 891 382 891H444Q450 891 451 888T450 879L366 770Q362 764 354 764H305Q299 764 298 767Z" />
<glyph unicode="&#xdb;" glyph-name="Ucircumflex" horiz-adv-x="542" d="M166 -8T117 40T68 172Q68 182 70 206L129 690Q131 700 140 700H214Q224 700 222 690L162 200Q161 193 161 180Q161 132 188 104T260 75Q312 75 347 109T390 200L450 690Q451 694 454 697T461
700H535Q544 700 544 690L484 206Q472 109 408 51T250 -8Q166 -8 117 40ZM221 766T220 769T222 778L306 885Q310 891 318 891H401Q409 891 411 885L471 778Q473 774 473 773Q473 766 463 766H405Q397 766 394 773L358 845Q357 847 355 847T352 845L298 773Q291
766 285 766H227Q221 766 220 769Z" />
<glyph unicode="&#xdc;" glyph-name="Udieresis" horiz-adv-x="542" d="M166 -8T117 40T68 172Q68 182 70 206L129 690Q131 700 140 700H214Q224 700 222 690L162 200Q161 193 161 180Q161 132 188 104T260 75Q312 75 347 109T390 200L450 690Q451 694 454 697T461
700H535Q544 700 544 690L484 206Q472 109 408 51T250 -8Q166 -8 117 40ZM406 782T391 797T376 836Q376 868 396 889T447 910Q471 910 486 895T501 854Q501 823 481 803T431 782Q406 782 391 797ZM239 782T224 797T209 836Q209 868 229 889T280 910Q304 910 319
895T334 854Q334 823 314 803T264 782Q239 782 224 797Z" />
<glyph unicode="&#xdd;" glyph-name="Yacute" horiz-adv-x="498" d="M183 1T185 11L220 295Q220 299 219 300L98 688L97 691Q97 700 107 700H186Q193 700 196 692L277 408Q278 406 280 406T283 408L433 692Q437 700 445 700H524Q529 700 531 697T531 688L313 300Q312
299 312 295L277 11Q275 1 266 1H193Q183 1 185 11ZM277 764T276 767T277 776L348 884Q351 891 360 891H422Q428 891 429 888T428 879L344 770Q340 764 332 764H283Q277 764 276 767Z" />
<glyph unicode="&#xde;" glyph-name="Thorn" horiz-adv-x="496" d="M405 550T448 504T492 383Q492 373 490 349Q483 290 454 245T381 176T283 151H163Q159 151 159 147L142 10Q140 0 131 0H57Q47 0 49 10L132 690Q134 700 143 700H217Q227 700 225 690L209 554Q208
553 209 552T212 550H331Q405 550 448 504ZM330 229T364 267T398 369Q398 415 374 440T308 466H202Q199 466 197 462L169 233Q169 229 173 229H279Q330 229 364 267Z" />
<glyph unicode="&#xdf;" glyph-name="germandbls" horiz-adv-x="487" d="M46 0T44 3T42 10L102 501Q114 599 169 654T311 709Q389 709 433 666T477 549Q477 487 453 443T386 377Q382 376 385 372Q414 355 430 320T447 238Q447 219 444 199Q433 105 374 53T218
0H183Q179 0 177 3T175 10L182 72Q183 76 186 79T193 82L233 83Q282 83 314 116T354 209Q356 227 356 235Q356 282 335 307T275 335H238Q228 335 230 345L236 401Q237 405 240 408T247 411H283Q325 411 351 439T384 517Q385 523 385 534Q385 577 364 601T304 626Q262
626 233 596T197 512L135 10Q133 0 124 0H50Q46 0 44 3Z" />
<glyph unicode="&#xe0;" glyph-name="agrave" horiz-adv-x="456" d="M368 509T377 509H450Q455 509 457 506T459 499L399 10Q397 0 388 0H314Q304 0 306 10L311 55Q312 58 310 58T307 56Q285 25 254 9T186 -8Q122 -8 86 33T51 143Q49 173 59 254Q69 334 80 371Q97
438 142 477T253 517Q290 517 316 502T356 455Q357 452 358 452T361 456L366 499Q368 509 377 509ZM328 190T336 254Q344 319 343 352Q344 388 324 411T269 434Q233 434 206 411T170 351Q162 316 155 255Q147 196 146 158Q146 121 167 98T225 75Q260 75 286 98T320
158Q328 190 336 254ZM313 581Q313 573 303 573H254Q247 573 243 579L187 688L186 692Q186 700 195 700H256Q263 700 267 693L312 585L313 581Z" />
<glyph unicode="&#xe1;" glyph-name="aacute" horiz-adv-x="456" d="M368 509T377 509H450Q455 509 457 506T459 499L399 10Q397 0 388 0H314Q304 0 306 10L311 55Q312 58 310 58T307 56Q285 25 254 9T186 -8Q122 -8 86 33T51 143Q49 173 59 254Q69 334 80 371Q97
438 142 477T253 517Q290 517 316 502T356 455Q357 452 358 452T361 456L366 499Q368 509 377 509ZM328 190T336 254Q344 319 343 352Q344 388 324 411T269 434Q233 434 206 411T170 351Q162 316 155 255Q147 196 146 158Q146 121 167 98T225 75Q260 75 286 98T320
158Q328 190 336 254ZM233 573T232 576T233 585L304 693Q307 700 316 700H378Q384 700 385 697T384 688L300 579Q296 573 288 573H239Q233 573 232 576Z" />
<glyph unicode="&#xe2;" glyph-name="acircumflex" horiz-adv-x="456" d="M368 509T377 509H450Q455 509 457 506T459 499L399 10Q397 0 388 0H314Q304 0 306 10L311 55Q312 58 310 58T307 56Q285 25 254 9T186 -8Q122 -8 86 33T51 143Q49 173 59 254Q69 334 80
371Q97 438 142 477T253 517Q290 517 316 502T356 455Q357 452 358 452T361 456L366 499Q368 509 377 509ZM328 190T336 254Q344 319 343 352Q344 388 324 411T269 434Q233 434 206 411T170 351Q162 316 155 255Q147 196 146 158Q146 121 167 98T225 75Q260 75
286 98T320 158Q328 190 336 254ZM155 575T154 578T156 587L240 694Q244 700 252 700H335Q343 700 345 694L405 587Q407 583 407 582Q407 575 397 575H339Q331 575 328 582L292 654Q291 656 289 656T286 654L232 582Q225 575 219 575H161Q155 575 154 578Z" />
<glyph unicode="&#xe3;" glyph-name="atilde" horiz-adv-x="456" d="M368 509T377 509H450Q455 509 457 506T459 499L399 10Q397 0 388 0H314Q304 0 306 10L311 55Q312 58 310 58T307 56Q285 25 254 9T186 -8Q122 -8 86 33T51 143Q49 173 59 254Q69 334 80 371Q97
438 142 477T253 517Q290 517 316 502T356 455Q357 452 358 452T361 456L366 499Q368 509 377 509ZM328 190T336 254Q344 319 343 352Q344 388 324 411T269 434Q233 434 206 411T170 351Q162 316 155 255Q147 196 146 158Q146 121 167 98T225 75Q260 75 286 98T320
158Q328 190 336 254ZM315 599T286 619Q281 622 273 627T259 635T244 638Q230 638 219 633T196 613Q190 604 182 610L158 632Q151 637 156 645Q173 674 196 688T246 703Q273 703 304 680Q308 677 316 672T331 663T346 660Q373 660 394 687Q400 696 408 690L431
669Q434 668 434 662Q434 657 430 652Q413 625 388 612T339 599Q315 599 286 619Z" />
<glyph unicode="&#xe4;" glyph-name="adieresis" horiz-adv-x="456" d="M368 509T377 509H450Q455 509 457 506T459 499L399 10Q397 0 388 0H314Q304 0 306 10L311 55Q312 58 310 58T307 56Q285 25 254 9T186 -8Q122 -8 86 33T51 143Q49 173 59 254Q69 334 80
371Q97 438 142 477T253 517Q290 517 316 502T356 455Q357 452 358 452T361 456L366 499Q368 509 377 509ZM328 190T336 254Q344 319 343 352Q344 388 324 411T269 434Q233 434 206 411T170 351Q162 316 155 255Q147 196 146 158Q146 121 167 98T225 75Q260 75
286 98T320 158Q328 190 336 254ZM339 591T324 606T309 645Q309 677 329 698T380 719Q404 719 419 704T434 663Q434 632 414 612T364 591Q339 591 324 606ZM172 591T157 606T142 645Q142 677 162 698T213 719Q237 719 252 704T267 663Q267 632 247 612T197 591Q172
591 157 606Z" />
<glyph unicode="&#xe5;" glyph-name="aring" horiz-adv-x="456" d="M368 509T377 509H450Q455 509 457 506T459 499L399 10Q397 0 388 0H314Q304 0 306 10L311 55Q312 58 310 58T307 56Q285 25 254 9T186 -8Q122 -8 86 33T51 143Q49 173 59 254Q69 334 80 371Q97
438 142 477T253 517Q290 517 316 502T356 455Q357 452 358 452T361 456L366 499Q368 509 377 509ZM328 190T336 254Q344 319 343 352Q344 388 324 411T269 434Q233 434 206 411T170 351Q162 316 155 255Q147 196 146 158Q146 121 167 98T225 75Q260 75 286 98T320
158Q328 190 336 254ZM236 573T209 601T181 672Q181 707 198 736T245 783T307 800Q350 800 377 773T404 702Q404 667 387 638T341 591T279 573Q236 573 209 601ZM311 627T330 647T350 695Q350 718 336 732T300 747Q274 747 255 727T235 677Q235 655 249 641T285
627Q311 627 330 647Z" />
<glyph unicode="&#xe6;" glyph-name="ae" horiz-adv-x="726" d="M110 -8T70 19T30 110Q30 118 32 136Q42 217 96 257T239 297H326Q327 297 328 298T330 301L334 337Q335 344 335 356Q335 392 316 413T259 434Q226 434 201 418T167 374Q164 364 155 365L82 371Q72
373 75 382Q88 442 142 479T267 517Q314 517 347 497T394 445Q397 441 400 444Q423 475 462 496T546 517Q615 517 658 476T703 367Q701 302 691 227Q691 223 688 220T680 217H420Q416 217 416 213Q415 205 413 191T411 160Q411 124 435 103T499 82Q564 82 596 142Q599
151 608 148L666 127Q674 124 672 115Q650 60 601 26T484 -8Q434 -8 398 13T349 65Q349 67 348 68T346 67Q325 34 277 13T172 -8Q110 -8 70 19ZM426 297T429 297H604Q608 297 608 301Q611 333 611 354Q611 390 590 412T533 434Q497 434 470 411T435 350Q430 331
426 301Q426 297 429 297ZM241 69T274 92T312 158L319 212Q319 216 316 216H241Q189 216 158 194T126 130Q126 101 146 85T199 69Q241 69 274 92Z" />
<glyph unicode="&#xe7;" glyph-name="ccedilla" horiz-adv-x="456" d="M326 160Q329 170 338 169L410 164Q420 164 418 153L413 136Q400 80 356 42T250 -5Q244 -7 248 -10Q280 -48 280 -88Q280 -107 274 -125Q262 -157 238 -171T184 -185Q165 -185 143 -179Q134
-176 137 -167L145 -135Q148 -125 158 -127Q167 -130 175 -130Q188 -130 199 -122T215 -98Q218 -89 218 -81Q218 -43 180 -7Q179 -5 175 -5Q118 5 86 44T52 143Q52 192 60 256Q68 321 80 367Q99 435 152 476T280 517Q352 517 396 478T443 378Q444 371 444 354Q443
345 433 343L360 337H358Q351 337 351 344L350 348V360Q349 391 327 412T269 434Q232 434 205 411T169 350Q159 307 153 255Q146 199 146 158Q146 120 167 98T225 75Q262 75 289 96T324 150L326 160Z" />
<glyph unicode="&#xe8;" glyph-name="egrave" horiz-adv-x="463" d="M261 75T286 91T326 137Q330 145 339 144L403 129Q412 126 408 117Q382 58 333 25T217 -8Q141 -8 100 31T54 138Q53 146 53 164Q53 197 60 255Q67 318 78 362Q95 432 149 474T277 517Q354 517
397 474T441 358Q441 309 429 221Q428 211 418 211H152Q148 211 148 207Q144 171 145 158Q145 121 167 98T228 75Q261 75 286 91ZM230 434T204 412T168 351Q164 331 158 292Q158 288 161 288H340Q344 288 344 292Q346 308 348 350Q348 387 327 410T268 434Q230
434 204 412ZM316 581Q316 573 306 573H257Q250 573 246 579L190 688L189 692Q189 700 198 700H259Q266 700 270 693L315 585L316 581Z" />
<glyph unicode="&#xe9;" glyph-name="eacute" horiz-adv-x="463" d="M261 75T286 91T326 137Q330 145 339 144L403 129Q412 126 408 117Q382 58 333 25T217 -8Q141 -8 100 31T54 138Q53 146 53 164Q53 197 60 255Q67 318 78 362Q95 432 149 474T277 517Q354 517
397 474T441 358Q441 309 429 221Q428 211 418 211H152Q148 211 148 207Q144 171 145 158Q145 121 167 98T228 75Q261 75 286 91ZM230 434T204 412T168 351Q164 331 158 292Q158 288 161 288H340Q344 288 344 292Q346 308 348 350Q348 387 327 410T268 434Q230
434 204 412ZM236 573T235 576T236 585L307 693Q310 700 319 700H381Q387 700 388 697T387 688L303 579Q299 573 291 573H242Q236 573 235 576Z" />
<glyph unicode="&#xea;" glyph-name="ecircumflex" horiz-adv-x="463" d="M261 75T286 91T326 137Q330 145 339 144L403 129Q412 126 408 117Q382 58 333 25T217 -8Q141 -8 100 31T54 138Q53 146 53 164Q53 197 60 255Q67 318 78 362Q95 432 149 474T277 517Q354
517 397 474T441 358Q441 309 429 221Q428 211 418 211H152Q148 211 148 207Q144 171 145 158Q145 121 167 98T228 75Q261 75 286 91ZM230 434T204 412T168 351Q164 331 158 292Q158 288 161 288H340Q344 288 344 292Q346 308 348 350Q348 387 327 410T268 434Q230
434 204 412ZM158 575T157 578T159 587L243 694Q247 700 255 700H338Q346 700 348 694L408 587Q410 583 410 582Q410 575 400 575H342Q334 575 331 582L295 654Q294 656 292 656T289 654L235 582Q228 575 222 575H164Q158 575 157 578Z" />
<glyph unicode="&#xeb;" glyph-name="edieresis" horiz-adv-x="463" d="M261 75T286 91T326 137Q330 145 339 144L403 129Q412 126 408 117Q382 58 333 25T217 -8Q141 -8 100 31T54 138Q53 146 53 164Q53 197 60 255Q67 318 78 362Q95 432 149 474T277 517Q354
517 397 474T441 358Q441 309 429 221Q428 211 418 211H152Q148 211 148 207Q144 171 145 158Q145 121 167 98T228 75Q261 75 286 91ZM230 434T204 412T168 351Q164 331 158 292Q158 288 161 288H340Q344 288 344 292Q346 308 348 350Q348 387 327 410T268 434Q230
434 204 412ZM343 591T328 606T313 645Q313 677 333 698T384 719Q408 719 423 704T438 663Q438 632 418 612T368 591Q343 591 328 606ZM176 591T161 606T146 645Q146 677 166 698T217 719Q241 719 256 704T271 663Q271 632 251 612T201 591Q176 591 161 606Z" />
<glyph unicode="&#xec;" glyph-name="igrave" horiz-adv-x="193" d="M31 0T31 10L91 499Q93 509 102 509H176Q186 509 184 499L124 10Q124 6 121 3T113 0H40Q31 0 31 10ZM181 581Q181 573 171 573H122Q115 573 111 579L55 688L54 692Q54 700 63 700H124Q131 700
135 693L180 585L181 581Z" />
<glyph unicode="&#xed;" glyph-name="iacute" horiz-adv-x="193" d="M31 0T31 10L91 499Q93 509 102 509H176Q186 509 184 499L124 10Q124 6 121 3T113 0H40Q31 0 31 10ZM101 573T100 576T101 585L172 693Q175 700 184 700H246Q252 700 253 697T252 688L168 579Q164
573 156 573H107Q101 573 100 576Z" />
<glyph unicode="&#xee;" glyph-name="icircumflex" horiz-adv-x="193" d="M31 0T31 10L91 499Q93 509 102 509H176Q186 509 184 499L124 10Q124 6 121 3T113 0H40Q31 0 31 10ZM23 575T22 578T24 587L108 694Q112 700 120 700H203Q211 700 213 694L273 587Q275
583 275 582Q275 575 265 575H207Q199 575 196 582L160 654Q159 656 157 656T154 654L100 582Q93 575 87 575H29Q23 575 22 578Z" />
<glyph unicode="&#xef;" glyph-name="idieresis" horiz-adv-x="193" d="M31 0T31 10L91 499Q93 509 102 509H176Q186 509 184 499L124 10Q124 6 121 3T113 0H40Q31 0 31 10ZM208 591T193 606T178 645Q178 677 198 698T249 719Q273 719 288 704T303 663Q303 632
283 612T233 591Q208 591 193 606ZM41 591T26 606T11 645Q11 677 31 698T82 719Q106 719 121 704T136 663Q136 632 116 612T66 591Q41 591 26 606Z" />
<glyph unicode="&#xf0;" glyph-name="eth" horiz-adv-x="473" d="M436 309T428 243Q422 194 409 138Q392 72 339 32T211 -8Q138 -8 96 31T51 138Q50 179 58 243Q65 307 77 347Q91 404 133 441T231 483Q249 485 257 485Q282 485 304 479T340 459Q343 456 343 462Q336
510 310 561Q310 562 309 563T306 563L220 540L215 539Q210 539 208 547L204 575V577Q204 584 213 588L278 607Q283 609 281 612Q250 657 225 688Q223 690 223 693Q223 700 231 700H306Q312 700 317 694L332 673Q352 647 360 633Q362 629 365 631L446 654L450 655Q456
655 458 647L462 617Q462 607 453 604L392 587Q388 585 389 583Q437 490 437 383Q437 361 436 350Q436 309 428 243ZM327 187T333 242Q340 293 341 329Q340 366 319 388T263 411Q227 411 201 389T166 329Q159 305 151 242Q144 190 144 153Q144 116 165 94T221 71Q257
71 283 93T319 153Q327 187 333 242Z" />
<glyph unicode="&#xf1;" glyph-name="ntilde" horiz-adv-x="472" d="M243 638T233 633T211 613Q204 605 197 611L175 632Q168 637 173 645Q190 674 212 688T258 703Q274 703 286 697T313 680Q318 677 325 672T339 663T354 660Q378 660 399 686Q401 690 405 691T412
689L434 669Q441 664 436 656Q419 627 395 613T347 599Q333 599 321 604T296 619Q292 622 284 627T270 635T256 638Q243 638 233 633ZM375 516T408 480T442 380Q442 371 440 347L399 10Q397 0 388 0H314Q304 0 306 10L345 333Q346 340 346 353Q346 391 327 412T273
433Q234 433 207 406T174 332L134 10Q132 0 123 0H49Q45 0 43 3T41 10L101 499Q103 509 112 509H186Q196 509 194 499L190 468Q190 465 191 465T195 467Q238 516 312 516Q375 516 408 480Z" />
<glyph unicode="&#xf2;" glyph-name="ograve" horiz-adv-x="468" d="M142 -8T99 32T53 143Q52 185 59 255Q67 321 81 366Q99 435 152 476T282 517Q357 517 400 476T445 367Q447 332 439 255Q430 184 417 143Q399 73 346 33T217 -8Q142 -8 99 32ZM263 75T290 98T329
159Q338 200 346 255Q352 309 352 350Q351 388 330 411T271 434Q234 434 207 411T169 350Q161 314 154 255Q146 196 146 159Q147 121 168 98T227 75Q263 75 290 98ZM319 581Q319 573 309 573H260Q253 573 249 579L193 688L192 692Q192 700 201 700H262Q269 700
273 693L318 585L319 581Z" />
<glyph unicode="&#xf3;" glyph-name="oacute" horiz-adv-x="468" d="M142 -8T99 32T53 143Q52 185 59 255Q67 321 81 366Q99 435 152 476T282 517Q357 517 400 476T445 367Q447 332 439 255Q430 184 417 143Q399 73 346 33T217 -8Q142 -8 99 32ZM263 75T290 98T329
159Q338 200 346 255Q352 309 352 350Q351 388 330 411T271 434Q234 434 207 411T169 350Q161 314 154 255Q146 196 146 159Q147 121 168 98T227 75Q263 75 290 98ZM239 573T238 576T239 585L310 693Q313 700 322 700H384Q390 700 391 697T390 688L306 579Q302
573 294 573H245Q239 573 238 576Z" />
<glyph unicode="&#xf4;" glyph-name="ocircumflex" horiz-adv-x="468" d="M142 -8T99 32T53 143Q52 185 59 255Q67 321 81 366Q99 435 152 476T282 517Q357 517 400 476T445 367Q447 332 439 255Q430 184 417 143Q399 73 346 33T217 -8Q142 -8 99 32ZM263 75T290
98T329 159Q338 200 346 255Q352 309 352 350Q351 388 330 411T271 434Q234 434 207 411T169 350Q161 314 154 255Q146 196 146 159Q147 121 168 98T227 75Q263 75 290 98ZM161 575T160 578T162 587L246 694Q250 700 258 700H341Q349 700 351 694L411 587Q413 583
413 582Q413 575 403 575H345Q337 575 334 582L298 654Q297 656 295 656T292 654L238 582Q231 575 225 575H167Q161 575 160 578Z" />
<glyph unicode="&#xf5;" glyph-name="otilde" horiz-adv-x="468" d="M142 -8T99 32T53 143Q52 185 59 255Q67 321 81 366Q99 435 152 476T282 517Q357 517 400 476T445 367Q447 332 439 255Q430 184 417 143Q399 73 346 33T217 -8Q142 -8 99 32ZM263 75T290 98T329
159Q338 200 346 255Q352 309 352 350Q351 388 330 411T271 434Q234 434 207 411T169 350Q161 314 154 255Q146 196 146 159Q147 121 168 98T227 75Q263 75 290 98ZM321 599T292 619Q287 622 279 627T265 635T250 638Q236 638 225 633T202 613Q196 604 188 610L164
632Q157 637 162 645Q179 674 202 688T252 703Q279 703 310 680Q314 677 322 672T337 663T352 660Q379 660 400 687Q406 696 414 690L437 669Q440 668 440 662Q440 657 436 652Q419 625 394 612T345 599Q321 599 292 619Z" />
<glyph unicode="&#xf6;" glyph-name="odieresis" horiz-adv-x="468" d="M142 -8T99 32T53 143Q52 185 59 255Q67 321 81 366Q99 435 152 476T282 517Q357 517 400 476T445 367Q447 332 439 255Q430 184 417 143Q399 73 346 33T217 -8Q142 -8 99 32ZM263 75T290
98T329 159Q338 200 346 255Q352 309 352 350Q351 388 330 411T271 434Q234 434 207 411T169 350Q161 314 154 255Q146 196 146 159Q147 121 168 98T227 75Q263 75 290 98ZM345 591T330 606T315 645Q315 677 335 698T386 719Q410 719 425 704T440 663Q440 632 420
612T370 591Q345 591 330 606ZM178 591T163 606T148 645Q148 677 168 698T219 719Q243 719 258 704T273 663Q273 632 253 612T203 591Q178 591 163 606Z" />
<glyph unicode="&#xf7;" glyph-name="divide" horiz-adv-x="454" d="M237 426T224 440T210 477Q210 503 229 522T273 542Q295 542 309 528T323 492Q323 465 304 446T259 426Q237 426 224 440ZM47 281T47 291L54 349Q55 353 58 356T65 359H437Q447 359 445 349L438
291Q438 287 435 284T427 281H56Q47 281 47 291ZM198 107T185 121T171 158Q171 183 190 203T234 223Q255 223 269 208T284 172Q284 146 265 127T220 107Q198 107 185 121Z" />
<glyph unicode="&#xf8;" glyph-name="oslash" horiz-adv-x="474" d="M422 445T424 442Q440 411 442 367Q444 332 436 255Q427 184 414 143Q396 73 343 33T214 -8Q164 -8 128 10Q125 12 123 9L90 -39Q88 -43 84 -44T76 -42L30 -6Q24 0 29 7L67 63Q68 65 68 69Q51
101 51 143Q48 188 57 255Q64 322 77 366Q96 435 149 476T279 517Q326 517 363 500Q367 498 368 501L402 550Q405 554 409 555T416 553L461 517Q465 514 465 512T462 504L425 448Q422 445 424 442ZM146 221T144 183Q144 180 145 179T148 181L311 418Q313 423 310
424Q294 434 268 434Q231 434 204 411T166 350Q158 314 151 255Q146 221 144 183ZM332 188T342 255L349 329Q347 336 344 331L180 92Q178 87 181 86Q200 75 225 75Q260 75 288 98T326 159Q332 188 342 255Z" />
<glyph unicode="&#xf9;" glyph-name="ugrave" horiz-adv-x="472" d="M362 509T371 509H445Q449 509 451 506T453 499L393 10Q391 0 382 0H308Q304 0 302 3T300 10L304 41Q304 43 303 44T299 43Q259 -7 186 -7Q127 -7 89 26T51 123Q51 131 53 149L96 499Q98 509
107 509H180Q190 509 188 499L149 175Q148 167 148 153Q148 116 166 96T221 76Q261 76 288 103T321 178L360 499Q362 509 371 509ZM319 581Q319 573 309 573H260Q253 573 249 579L193 688L192 692Q192 700 201 700H262Q269 700 273 693L318 585L319 581Z" />
<glyph unicode="&#xfa;" glyph-name="uacute" horiz-adv-x="472" d="M362 509T371 509H445Q449 509 451 506T453 499L393 10Q391 0 382 0H308Q304 0 302 3T300 10L304 41Q304 43 303 44T299 43Q259 -7 186 -7Q127 -7 89 26T51 123Q51 131 53 149L96 499Q98 509
107 509H180Q190 509 188 499L149 175Q148 167 148 153Q148 116 166 96T221 76Q261 76 288 103T321 178L360 499Q362 509 371 509ZM239 573T238 576T239 585L310 693Q313 700 322 700H384Q390 700 391 697T390 688L306 579Q302 573 294 573H245Q239 573 238 576Z"
/>
<glyph unicode="&#xfb;" glyph-name="ucircumflex" horiz-adv-x="472" d="M362 509T371 509H445Q449 509 451 506T453 499L393 10Q391 0 382 0H308Q304 0 302 3T300 10L304 41Q304 43 303 44T299 43Q259 -7 186 -7Q127 -7 89 26T51 123Q51 131 53 149L96 499Q98
509 107 509H180Q190 509 188 499L149 175Q148 167 148 153Q148 116 166 96T221 76Q261 76 288 103T321 178L360 499Q362 509 371 509ZM161 575T160 578T162 587L246 694Q250 700 258 700H341Q349 700 351 694L411 587Q413 583 413 582Q413 575 403 575H345Q337
575 334 582L298 654Q297 656 295 656T292 654L238 582Q231 575 225 575H167Q161 575 160 578Z" />
<glyph unicode="&#xfc;" glyph-name="udieresis" horiz-adv-x="472" d="M362 509T371 509H445Q449 509 451 506T453 499L393 10Q391 0 382 0H308Q304 0 302 3T300 10L304 41Q304 43 303 44T299 43Q259 -7 186 -7Q127 -7 89 26T51 123Q51 131 53 149L96 499Q98
509 107 509H180Q190 509 188 499L149 175Q148 167 148 153Q148 116 166 96T221 76Q261 76 288 103T321 178L360 499Q362 509 371 509ZM346 591T331 606T316 645Q316 677 336 698T387 719Q411 719 426 704T441 663Q441 632 421 612T371 591Q346 591 331 606ZM179
591T164 606T149 645Q149 677 169 698T220 719Q244 719 259 704T274 663Q274 632 254 612T204 591Q179 591 164 606Z" />
<glyph unicode="&#xfd;" glyph-name="yacute" horiz-adv-x="419" d="M1 -199T-1 -196T-2 -189L5 -130Q7 -120 16 -120H17Q52 -119 73 -110T110 -77T142 -3Q143 -1 143 3L61 498V500Q61 509 71 509H150Q159 509 159 500L205 131Q206 129 207 129T209 131L345 500Q347
509 356 509L434 508Q446 508 441 497L222 -35Q193 -104 169 -137T108 -185T10 -199H4Q1 -199 -1 -196ZM214 576T213 579T214 588L285 696Q288 703 297 703H359Q365 703 366 700T365 691L281 582Q277 576 269 576H220Q214 576 213 579Z" />
<glyph unicode="&#xfe;" glyph-name="thorn" horiz-adv-x="470" d="M445 339T435 254Q425 173 416 143Q399 74 353 33T243 -8Q173 -8 142 50Q141 53 139 53T137 49L108 -190Q106 -200 97 -200H23Q13 -200 15 -190L123 690Q123 694 126 697T133 700H207Q216 700
216 690L188 462Q187 459 189 459T192 461Q233 517 306 517Q371 517 406 478T443 371Q445 339 435 254ZM332 193T340 255Q348 329 348 351Q348 388 327 411T270 434Q235 434 209 411T175 352L173 345L150 158Q150 122 170 99T226 75Q262 75 288 98T324 158Q332
193 340 255Z" />
<glyph unicode="&#xff;" glyph-name="ydieresis" horiz-adv-x="419" d="M1 -199T-1 -196T-2 -189L5 -130Q7 -120 16 -120H17Q52 -119 73 -110T110 -77T142 -3Q143 -1 143 3L61 498V500Q61 509 71 509H150Q159 509 159 500L205 131Q206 129 207 129T209 131L345
500Q347 509 356 509L434 508Q446 508 441 497L222 -35Q193 -104 169 -137T108 -185T10 -199H4Q1 -199 -1 -196ZM321 594T306 609T291 648Q291 680 311 701T362 722Q386 722 401 707T416 666Q416 635 396 615T346 594Q321 594 306 609ZM154 594T139 609T124 648Q124
680 144 701T195 722Q219 722 234 707T249 666Q249 635 229 615T179 594Q154 594 139 609Z" />
<glyph unicode="&#x2013;" glyph-name="endash" horiz-adv-x="405" d="M41 242T43 252L50 315Q52 325 61 325H384Q393 325 393 315L385 252Q383 242 374 242H51Q41 242 43 252Z" />
<glyph unicode="&#x2014;" glyph-name="emdash" horiz-adv-x="615" d="M41 242T43 252L50 315Q52 325 61 325H595Q605 325 603 315L595 252Q595 248 592 245T585 242H51Q41 242 43 252Z" />
<glyph unicode="&#x2018;" glyph-name="quoteleft" horiz-adv-x="150" d="M47 488T46 491T46 500L138 692Q142 700 150 700H205Q216 700 213 689L139 497Q135 488 127 488H52Q47 488 46 491Z" />
<glyph unicode="&#x2019;" glyph-name="quoteright" horiz-adv-x="150" d="M215 700T212 688L119 496Q115 488 107 488H52Q40 488 45 499L118 691Q119 695 122 697T130 700H205Q215 700 212 688Z" />
<glyph unicode="&#x201a;" glyph-name="quotesinglbase" horiz-adv-x="582" d="M20 -86T18 -83T17 -75L77 147Q80 156 88 156H153Q164 156 159 145L81 -77Q77 -86 69 -86H24Q20 -86 18 -83Z" />
<glyph unicode="&#x201c;" glyph-name="quotedblleft" horiz-adv-x="285" d="M41 488T46 499L136 692Q140 700 149 700H201Q206 700 208 697T209 689L136 497Q132 488 124 488H52Q41 488 46 499ZM182 488T185 499L276 692Q280 700 289 700H340Q352 700 347 689L275
497Q274 488 264 488H192Q182 488 185 499Z" />
<glyph unicode="&#x201d;" glyph-name="quotedblright" horiz-adv-x="285" d="M212 700T207 689L116 496Q113 488 104 488H52Q40 488 45 499L117 691Q120 700 129 700H200Q212 700 207 689ZM351 700T346 689L256 496Q252 488 243 488H191Q180 488 183 499L257
691Q259 700 268 700H340Q351 700 346 689Z" />
<glyph unicode="&#x201e;" glyph-name="quotedblbase" horiz-adv-x="286" d="M142 128T137 117L46 -76Q43 -84 34 -84H-18Q-30 -84 -25 -73L47 119Q50 128 59 128H130Q142 128 137 117ZM281 128T276 117L186 -76Q182 -84 173 -84H121Q110 -84 113 -73L187 119Q189
128 198 128H270Q281 128 276 117Z" />
<glyph unicode="&#x2022;" glyph-name="bullet" horiz-adv-x="296" d="M102 150T73 180T44 256Q44 292 62 323T111 372T177 390Q221 390 250 361T280 286Q280 250 262 219T212 169T147 150Q102 150 73 180Z" />
<glyph unicode="&#x2039;" glyph-name="guilsinglleft" horiz-adv-x="318" d="M237 118T237 115Q237 112 235 110T228 107H160Q151 107 149 113L64 274Q62 278 62 280Q62 285 65 288L190 449Q194 455 202 455H270Q276 455 277 452T276 443L151 284Q150 281 151
278L236 119Q237 118 237 115Z" />
<glyph unicode="&#x203a;" glyph-name="guilsinglright" horiz-adv-x="341" d="M72 107T71 110T73 119L197 278Q199 282 198 284L113 443Q111 447 111 448Q111 455 121 455H189Q196 455 200 449L285 288Q286 287 286 283Q286 279 283 274L158 113Q154 107 146
107H78Q72 107 71 110Z" />
</font>
</defs>
</svg>
